<svg xmlns="http://www.w3.org/2000/svg" width="858" height="1536" viewBox="0 0 858 1536" version="1.1">
	<path d="M 353.750 16.674 C 350.038 16.903, 347 17.485, 347 17.966 C 347 18.447, 345.642 19.139, 343.983 19.504 C 340.773 20.209, 334 25.929, 334 27.935 C 334 29.745, 329.062 35.846, 327.089 36.472 C 326.136 36.774, 324.297 38.929, 323.003 41.261 C 321.708 43.592, 320.372 45.725, 320.033 46 C 319.694 46.275, 318.785 48.460, 318.013 50.856 C 317.241 53.252, 316.067 55.421, 315.403 55.675 C 314.740 55.930, 313.921 56.895, 313.583 57.819 C 312.447 60.925, 310.030 64.513, 310.015 63.115 C 310.006 62.329, 309.100 62.874, 307.920 64.375 C 306.776 65.829, 305.426 66.763, 304.920 66.451 C 304.414 66.138, 304 66.551, 304 67.368 C 304 68.186, 302.988 69.693, 301.750 70.718 C 299.258 72.781, 297.249 75.585, 296.354 78.250 C 296.031 79.213, 295.375 80, 294.897 80 C 294.418 80, 293.369 81.575, 292.564 83.500 C 291.760 85.425, 290.517 87.007, 289.801 87.015 C 288.866 87.026, 288.922 87.303, 290 88 C 291.331 88.860, 291.330 88.971, 289.990 88.985 C 287.423 89.011, 279.794 97.021, 278.413 101.140 C 277.295 104.477, 276.978 105.931, 276.322 110.730 C 276.004 113.057, 275.446 114.776, 275.082 114.551 C 274.718 114.326, 273.604 117.861, 272.608 122.407 C 270.878 130.294, 270.640 130.728, 267.398 131.901 C 265.529 132.577, 263.993 133.438, 263.984 133.815 C 263.975 134.192, 262.632 136.016, 260.998 137.869 C 258.357 140.865, 256.021 146.386, 256.006 149.667 C 256.003 150.308, 255.662 150.983, 255.250 151.167 C 254.838 151.350, 253.700 155.444, 252.723 160.263 C 251.121 168.162, 250.554 169.395, 246.975 172.763 C 244.790 174.819, 243.003 177.261, 243.002 178.191 C 243.001 179.121, 242.550 180.160, 242 180.500 C 241.450 180.840, 241 181.991, 241 183.059 C 241 184.127, 240.624 185, 240.164 185 C 239.704 185, 238.577 187.700, 237.660 191 C 236.742 194.300, 235.578 197, 235.073 197 C 234.568 197, 233.642 198.554, 233.015 200.453 C 232.369 202.413, 228.750 207.064, 224.650 211.203 C 220.676 215.217, 216.803 219.737, 216.043 221.250 C 215.284 222.762, 214.288 224, 213.831 224 C 213.374 224, 213 224.585, 213 225.301 C 213 227.596, 210.541 231.984, 209.250 231.992 C 208.562 231.996, 207.100 232.900, 206 234 C 204.900 235.100, 204 235.714, 204 235.365 C 204 235.016, 203.100 235.874, 202 237.273 C 200.900 238.671, 200 240.307, 200 240.908 C 200 241.508, 199.585 242, 199.078 242 C 197.535 242, 196.140 248.011, 195.423 257.750 C 195.048 262.837, 194.350 267, 193.871 267 C 193.392 267, 193 268.101, 193 269.446 C 193 271.116, 191.097 273.753, 187 277.763 C 183.700 280.992, 181 284.146, 181 284.772 C 181 287.373, 171.571 299, 169.462 299 C 167.931 299, 161.293 306.499, 160.443 309.190 C 160.042 310.460, 158.878 312.088, 157.857 312.807 C 156.835 313.525, 156 314.777, 156 315.588 C 156 316.399, 155.291 317.335, 154.423 317.668 C 153.556 318.001, 152.439 319.344, 151.941 320.654 C 151.443 321.964, 149.941 323.452, 148.604 323.961 C 147.266 324.469, 145.875 325.818, 145.514 326.957 C 145.152 328.097, 144.501 328.810, 144.068 328.542 C 143.634 328.274, 142.441 329.955, 141.417 332.277 C 140.393 334.600, 139.181 336.767, 138.724 337.092 C 138.267 337.418, 137.223 340.249, 136.405 343.383 C 134.664 350.046, 131.887 353.646, 127.791 354.546 C 126.177 354.900, 125.102 355.435, 125.401 355.734 C 125.700 356.033, 124.270 357.108, 122.222 358.122 C 118.099 360.164, 113.364 366.910, 111.252 373.750 C 110.530 376.088, 109.527 378, 109.023 378 C 108.520 378, 107.123 380.700, 105.920 384 C 104.716 387.300, 103.415 390, 103.027 390 C 102.639 390, 101.462 391.795, 100.411 393.989 C 99.360 396.182, 98.224 397.982, 97.886 397.989 C 97.548 397.995, 96.456 400.138, 95.460 402.750 C 93.371 408.225, 89.899 412.017, 85.230 413.924 C 83.431 414.658, 81.197 416.551, 80.264 418.130 C 79.332 419.708, 78.258 421, 77.878 421 C 77.499 421, 76.518 422.968, 75.698 425.373 C 73.889 430.681, 70.619 434.628, 67.349 435.449 C 66.012 435.784, 65.168 436.463, 65.474 436.957 C 65.779 437.452, 65.115 438.146, 63.998 438.501 C 62.170 439.081, 58.461 445.381, 58.846 447.250 C 58.931 447.663, 58.550 448, 58 448 C 57.450 448, 57 450.277, 57 453.059 C 57 456.177, 57.384 457.881, 58 457.500 C 58.637 457.106, 59 459.990, 59 465.441 C 59 470.148, 58.646 474, 58.214 474 C 57.782 474, 56.610 478.050, 55.609 483 C 54.609 487.950, 53.387 492, 52.895 492 C 52.403 492, 51.985 492.563, 51.967 493.250 C 51.909 495.426, 48.370 498.869, 45.433 499.606 C 42.747 500.280, 35.539 505.059, 31.750 508.678 C 30.113 510.242, 30 510.237, 30 508.598 C 30 507.635, 28.577 505.424, 26.839 503.685 C 21.054 497.900, 16.621 495.996, 7.250 495.272 L -0 494.711 -0 515.907 L -0 537.103 5.250 536.911 C 9.024 536.772, 11.484 537.300, 14 538.786 C 15.925 539.923, 19.184 541.161, 21.241 541.536 C 23.299 541.912, 24.791 542.529, 24.556 542.909 C 24.322 543.288, 28.149 544.410, 33.060 545.403 C 37.971 546.396, 41.740 547.611, 41.436 548.104 C 41.131 548.597, 41.514 549, 42.287 549 C 43.723 549, 50.097 551.873, 51 552.927 C 51.732 553.781, 57.926 555.776, 62.250 556.551 C 64.313 556.920, 66 557.554, 66 557.959 C 66 558.364, 67.350 558.734, 69 558.781 C 70.650 558.828, 72 558.549, 72 558.161 C 72 557.772, 73.551 556.620, 75.446 555.599 C 80.407 552.927, 86.958 538.791, 86.989 530.688 C 87.001 527.628, 84.095 517.808, 82.938 517 C 82.545 516.725, 81.790 514.925, 81.261 512.999 C 80.306 509.525, 81.350 505, 83.106 505 C 83.546 505, 84.703 503.313, 85.677 501.250 C 86.650 499.188, 89.199 495.723, 91.341 493.552 C 93.483 491.381, 95.323 489.131, 95.430 488.552 C 95.538 487.973, 96.610 485.387, 97.813 482.805 C 99.016 480.223, 100 476.802, 100 475.204 C 100 472.169, 101.848 465.862, 102.990 465 C 103.354 464.725, 104.714 460.788, 106.013 456.250 C 107.311 451.713, 108.739 448, 109.187 448 C 109.634 448, 110 447.433, 110 446.740 C 110 446.047, 111.037 444.359, 112.305 442.990 C 115.137 439.930, 118 434.328, 118 431.846 C 118 430.831, 118.405 430, 118.900 430 C 119.394 430, 120.608 427.750, 121.597 425 C 122.586 422.250, 123.711 420, 124.097 420 C 124.483 420, 125.608 417.750, 126.597 415 C 127.586 412.250, 128.671 410, 129.009 410 C 129.347 410, 130.495 409.198, 131.561 408.217 C 132.628 407.237, 135.188 405.641, 137.250 404.670 C 139.313 403.700, 141 402.562, 141 402.142 C 141 401.721, 141.927 400.382, 143.061 399.165 C 144.194 397.948, 145.780 395.378, 146.584 393.453 C 148.517 388.826, 150.878 386.590, 156.416 384.140 C 158.937 383.025, 161 381.722, 161 381.245 C 161 380.768, 161.788 379.505, 162.750 378.439 C 164.678 376.303, 166.534 372.716, 167.505 369.250 C 167.851 368.012, 168.554 367, 169.067 367 C 169.580 367, 170 366.518, 170 365.929 C 170 364.470, 172.574 362, 174.095 362 C 174.776 362, 175.037 361.704, 174.675 361.342 C 174.313 360.980, 174.558 360.032, 175.220 359.235 C 176.552 357.630, 177.772 355.523, 180.954 349.337 C 182.131 347.047, 186.336 341.816, 190.297 337.712 C 194.259 333.609, 198.625 328.797, 200 327.021 C 201.375 325.244, 203.004 323.253, 203.620 322.597 C 204.237 321.940, 205.541 319.849, 206.518 317.951 C 207.496 316.053, 209.198 313.713, 210.301 312.750 C 211.404 311.788, 211.943 311, 211.500 311 C 211.057 311, 211.596 310.213, 212.699 309.250 C 214.699 307.505, 219 296.878, 219 293.683 C 219 292.758, 219.477 292, 220.059 292 C 220.641 292, 220.876 291.608, 220.580 291.129 C 219.613 289.564, 227.542 281, 229.958 281 C 230.531 281, 231 280.605, 231 280.121 C 231 279.638, 232.350 278.683, 234 278 C 235.650 277.317, 237 276.362, 237 275.879 C 237 275.395, 237.788 274.199, 238.750 273.220 C 239.713 272.240, 241.139 270.215, 241.919 268.720 C 242.699 267.224, 244.049 265.964, 244.919 265.921 C 245.789 265.878, 245.992 265.633, 245.370 265.378 C 244.283 264.931, 249.368 259, 250.837 259 C 251.834 259, 257 254.061, 257 253.108 C 257 252.662, 258.350 250.884, 260 249.157 C 261.650 247.431, 263 245.774, 263 245.476 C 263 244.600, 269.854 238, 270.764 238 C 271.220 238, 273.267 236.287, 275.312 234.192 C 278.865 230.554, 278.978 230.232, 277.854 226.942 C 276.296 222.381, 271.019 213, 270.012 213 C 269.573 213, 268.941 212.289, 268.608 211.421 C 268.210 210.384, 269.426 208.473, 272.145 205.861 C 276.459 201.716, 280.875 193.712, 283.103 186 C 283.818 183.525, 284.697 181.275, 285.056 181 C 285.416 180.725, 286.284 178.078, 286.986 175.119 C 287.688 172.159, 289.104 169.009, 290.132 168.119 C 294.964 163.935, 299 159.463, 299 158.292 C 299 157.581, 299.350 157, 299.778 157 C 300.547 157, 304 146.529, 304 144.201 C 304 143.540, 304.389 143, 304.864 143 C 305.339 143, 306.503 140.971, 307.450 138.491 C 308.994 134.449, 314.085 128.053, 315.827 127.967 C 317.475 127.885, 321.132 123.857, 323.356 119.675 C 324.690 117.166, 326.055 115.389, 326.390 115.724 C 326.726 116.059, 327 115.605, 327 114.714 C 327 112.031, 329.227 108, 330.710 108 C 332.728 108, 338.366 104.957, 339.300 103.365 C 339.740 102.614, 340.736 102, 341.515 102 C 342.293 102, 343.456 101.016, 344.100 99.813 C 344.744 98.610, 346.110 96.725, 347.135 95.624 C 348.161 94.524, 349 93.278, 349 92.856 C 349 92.434, 350.093 90.479, 351.428 88.511 C 352.763 86.544, 354.150 83.595, 354.509 81.958 C 354.869 80.322, 355.576 79.238, 356.081 79.550 C 356.587 79.863, 357.003 79.304, 357.006 78.309 C 357.024 72.255, 361.720 64.871, 367.855 61.250 C 372.325 58.612, 391.829 59.925, 394 63.010 C 394.275 63.401, 396.026 64.503, 397.891 65.459 C 399.756 66.415, 403.131 69.110, 405.391 71.449 C 407.651 73.787, 410.288 75.979, 411.250 76.319 C 412.212 76.659, 413 77.365, 413 77.888 C 413 78.411, 415.363 79.574, 418.250 80.473 C 421.137 81.372, 424.255 82.516, 425.178 83.017 C 426.102 83.518, 431.727 84.197, 437.678 84.526 C 443.630 84.855, 449.472 85.319, 450.661 85.559 C 452.875 86.004, 460 92.295, 460 93.805 C 460 96.526, 475.587 103, 482.140 103 C 483.228 103, 483.865 103.410, 483.555 103.911 C 483.245 104.413, 484.860 105.139, 487.144 105.524 C 490.358 106.067, 492.600 107.501, 497.058 111.863 C 504.431 119.078, 504.899 119.437, 509.876 121.719 C 512.166 122.768, 513.806 123.861, 513.521 124.146 C 513.236 124.430, 514.240 125.300, 515.752 126.077 C 517.263 126.855, 520.648 129.644, 523.274 132.275 C 525.973 134.980, 529.342 137.318, 531.024 137.655 C 532.661 137.982, 534 138.608, 534 139.046 C 534 139.955, 541.003 141.552, 548 142.239 C 550.731 142.507, 560.035 140.752, 560.583 139.866 C 561.319 138.675, 569.524 135, 571.445 135 C 572.300 135, 573 134.651, 573 134.225 C 573 132.217, 589.789 129.956, 602.794 130.213 C 611.594 130.387, 616.327 130.105, 616.794 129.381 C 617.182 128.780, 624.556 127.486, 633.180 126.507 C 647.992 124.826, 649.096 124.821, 653.123 126.432 C 657 127.984, 659.079 129.692, 662.353 134.015 C 664.522 136.881, 669.060 138, 678.506 138 C 687.837 138, 694.859 136.085, 695.009 133.500 C 695.155 130.969, 701.231 125.972, 704.900 125.365 C 705.670 125.237, 706.570 124.732, 706.900 124.242 C 707.230 123.753, 709.678 122.753, 712.341 122.021 C 715.004 121.288, 717.414 120.084, 717.698 119.345 C 717.982 118.605, 718.648 118, 719.178 118 C 720.391 118, 722.497 115.928, 723.260 113.982 C 723.770 112.683, 723.857 112.685, 723.960 114 C 724.174 116.712, 727 108.847, 727 105.541 C 727 99.615, 730.220 97.364, 740.703 95.961 C 748.129 94.967, 750.335 94.272, 752.127 92.364 C 753.349 91.064, 754.913 90, 755.603 90 C 756.293 90, 757.452 89.421, 758.179 88.714 C 759.657 87.276, 765.340 85.509, 771.750 84.496 C 774.087 84.126, 776 83.475, 776 83.048 C 776 82.621, 778.112 81.465, 780.693 80.480 C 783.273 79.494, 786.363 77.633, 787.557 76.344 C 788.752 75.055, 790.210 74, 790.797 74 C 791.385 74, 792.151 73.100, 792.500 72 C 792.849 70.900, 793.710 70, 794.412 70 C 795.115 70, 796.495 69.111, 797.479 68.024 C 798.462 66.937, 799.626 66.269, 800.065 66.540 C 800.503 66.811, 801.112 66.627, 801.419 66.132 C 802.618 64.191, 810.543 64.040, 817.268 65.830 C 820.991 66.820, 823.780 67.887, 823.467 68.199 C 822.485 69.182, 835.031 71.065, 846.750 71.694 L 858 72.297 858 54.649 L 858 37 852.901 37 C 848.038 37, 841 34.636, 841 33.003 C 841 32.580, 840.105 31.999, 839.012 31.713 C 837.919 31.427, 836.619 30.128, 836.124 28.826 C 835.629 27.523, 834.048 25.829, 832.612 25.060 C 831.175 24.291, 830 23.288, 830 22.831 C 830 22.374, 825.096 22, 819.103 22 C 808.668 22, 808.074 22.115, 805.103 24.723 C 803.396 26.220, 802 27.868, 802 28.383 C 802 29.492, 796.013 35, 794.809 35 C 794.352 35, 792.071 35.850, 789.739 36.889 C 787.408 37.929, 783.605 39.493, 781.289 40.366 C 776.339 42.231, 773.129 44.709, 772.020 47.521 C 771.582 48.633, 769.936 50.207, 768.362 51.020 C 766.788 51.832, 765.254 52.826, 764.953 53.228 C 764.653 53.631, 760.905 54.684, 756.625 55.569 C 749.463 57.051, 748.448 57.050, 743.891 55.559 C 738.912 53.931, 737.316 52.864, 732.120 47.690 L 729.297 44.880 724.462 49.383 C 721.802 51.860, 718.023 54.699, 716.063 55.693 C 714.103 56.687, 712.140 58.063, 711.700 58.750 C 711.260 59.437, 710.276 60, 709.512 60 C 707.444 60, 702.212 65.134, 699.917 69.415 C 698.295 72.442, 697.937 74.821, 698.087 81.589 C 698.188 86.215, 698.639 90, 699.088 90 C 700.259 90, 695.990 94.256, 692.785 96.283 C 688.613 98.922, 670.162 98.676, 659.568 95.840 C 655.131 94.652, 651.350 93.302, 651.167 92.840 C 650.738 91.760, 646.272 91.741, 645.833 92.817 C 645.650 93.267, 637.400 94.623, 627.500 95.832 C 612.739 97.634, 604.303 98.027, 580.624 98.015 C 554.901 98.002, 550.778 97.772, 542.874 95.917 C 537.993 94.771, 534 93.477, 534 93.042 C 534 92.606, 532.650 91.980, 531 91.650 C 528.852 91.220, 528 90.475, 528 89.025 C 528 87.911, 527.599 87, 527.109 87 C 526.618 87, 525.526 85.313, 524.681 83.250 C 523.837 81.188, 520.816 77.475, 517.969 75 C 515.123 72.525, 511.776 69.487, 510.532 68.250 C 509.288 67.013, 507.942 66, 507.540 66 C 507.138 66, 505.610 65.147, 504.145 64.103 C 499.477 60.779, 493.064 59.609, 479.216 59.553 C 470.651 59.519, 465.678 59.106, 465.216 58.392 C 464.822 57.783, 462.475 56.323, 460 55.149 C 454.924 52.740, 451.161 50.335, 448.387 47.725 C 443.005 42.662, 440.335 40.905, 436.603 39.970 C 434.346 39.405, 431.375 38.333, 430 37.587 C 428.625 36.842, 424.238 35.658, 420.250 34.956 C 416.262 34.254, 413 33.302, 413 32.840 C 413 32.378, 412.174 32, 411.164 32 C 410.154 32, 407.566 29.811, 405.414 27.136 C 401.554 22.340, 399.144 20.751, 393.757 19.449 C 392.248 19.085, 391.262 18.385, 391.566 17.893 C 391.870 17.402, 389.686 17, 386.715 17 C 383.743 17, 376.629 16.833, 370.906 16.628 C 365.183 16.423, 357.462 16.444, 353.750 16.674" stroke="none" fill="#0c1509" fill-rule="evenodd"/>
</svg>