<svg xmlns="http://www.w3.org/2000/svg" width="224" height="94" viewBox="0 0 224 94" version="1.1">
	<path d="M 73.749 4.413 C 88.764 13.670, 100.819 17.117, 117.461 16.913 C 125.500 16.814, 129.544 17.133, 129.794 17.883 C 130.358 19.573, 131.708 19.221, 132.227 17.250 C 132.548 16.032, 134.938 14.915, 140.094 13.576 C 149.264 11.194, 156.390 11.261, 163.236 13.792 C 172.334 17.157, 177.197 17.400, 185.581 14.911 C 192.325 12.909, 193.635 12.081, 198.674 6.639 C 202.344 2.675, 203.813 0.438, 202.937 0.146 C 202.201 -0.100, 201.393 0.330, 201.140 1.100 C 200.214 3.922, 192.359 10.638, 187.299 12.935 C 182.815 14.971, 181.092 15.217, 174.799 14.723 C 170.785 14.407, 165.958 13.368, 164.073 12.413 C 158.583 9.632, 147.666 9.394, 140.282 11.894 C 132.427 14.554, 132.371 14.550, 131.446 11.250 L 130.676 8.500 130.081 11.484 C 129.573 14.030, 128.899 14.572, 125.493 15.177 C 110.358 17.861, 89.484 12.849, 75 3.052 C 72.525 1.378, 69.621 0.007, 68.546 0.004 C 67.398 0.002, 69.544 1.820, 73.749 4.413 M 90.552 1.945 C 104.949 8.356, 131.204 8.810, 148.067 2.938 C 155.366 0.397, 159.422 0.532, 165.500 3.522 C 173.301 7.360, 181.528 6.815, 186.903 2.106 C 188.716 0.517, 188.915 0, 187.712 0 C 186.835 0, 185.858 0.422, 185.539 0.937 C 184.414 2.758, 178.646 5, 175.088 5 C 173.106 5, 169.371 3.875, 166.788 2.500 C 160.624 -0.781, 154.489 -0.743, 143.265 2.648 C 131.786 6.116, 113.805 6.524, 101.500 3.596 C 97.100 2.549, 93.073 1.312, 92.550 0.846 C 92.027 0.381, 90.453 0.032, 89.050 0.071 C 86.825 0.132, 87.016 0.371, 90.552 1.945 M 207.092 10.003 C 198.849 26.503, 197.672 28.391, 194.748 29.792 C 193.237 30.516, 192 31.489, 192 31.954 C 192 33.774, 182.401 33.612, 176 31.683 C 172.425 30.606, 169.050 29.391, 168.500 28.983 C 164.994 26.383, 142.636 21.860, 137.447 22.702 C 135.561 23.008, 133.435 22.776, 132.724 22.186 C 132.014 21.596, 130.547 21.279, 129.466 21.480 C 128.385 21.682, 125.700 21.955, 123.500 22.086 C 119.859 22.304, 119.994 22.379, 125 22.913 L 130.500 23.500 121.122 25.880 C 113.416 27.835, 110.119 28.167, 102.622 27.744 C 92.585 27.177, 81.960 24.636, 77.846 21.818 C 76.386 20.818, 74.873 20, 74.485 20 C 74.097 20, 70.838 17.944, 67.243 15.431 C 58.288 9.171, 52.124 7.039, 42.450 6.854 C 29.813 6.612, 22.412 9.987, 11.080 21.157 C 4.721 27.425, 0 33.675, 0 35.825 C 0 36.663, 2.046 34.683, 4.546 31.425 C 10.610 23.522, 20.156 14.606, 24.764 12.540 C 26.819 11.618, 29.553 10.348, 30.840 9.715 C 32.127 9.083, 37.302 8.583, 42.340 8.604 C 50.197 8.637, 52.353 9.038, 57.500 11.419 C 60.800 12.946, 63.725 14.501, 64 14.876 C 66.058 17.682, 76.675 23.609, 84.304 26.210 C 92.390 28.967, 94.767 29.338, 104 29.288 C 110.284 29.254, 116.967 28.583, 120.644 27.616 C 129.279 25.345, 130 25.452, 130 29 C 130 31.223, 129.534 32, 128.198 32 C 127.207 32, 120.794 33.401, 113.948 35.113 C 102.839 37.891, 100.424 38.167, 91.500 37.687 C 81.186 37.131, 72.333 34.568, 60.500 28.713 C 57.750 27.352, 53.812 25.700, 51.750 25.042 C 49.687 24.383, 48 23.521, 48 23.126 C 48 22.730, 42.713 22.374, 36.250 22.334 C 29.383 22.291, 25.955 22.550, 28 22.955 L 31.500 23.649 28.500 24.402 C 13.972 28.051, -0.098 44.401, 0.062 57.446 L 0.124 62.500 2.005 58.500 C 3.039 56.300, 5.030 51.872, 6.429 48.660 C 10.279 39.817, 19.055 31.681, 27.583 29.047 C 31.228 27.921, 34.613 27, 35.105 27 C 35.597 27, 36.032 28.462, 36.070 30.250 C 36.109 32.038, 36.527 34.400, 37 35.500 C 37.631 36.969, 37.878 36.106, 37.930 32.250 C 37.997 27.200, 38.105 27.001, 40.750 27.024 C 45.363 27.065, 51.868 28.901, 58.851 32.132 C 78.045 41.013, 79.481 41.390, 94 41.374 C 104.496 41.361, 108.023 40.930, 116 38.680 C 123.006 36.705, 127.732 36.010, 134 36.036 C 147.507 36.091, 155.086 38.263, 174.745 47.716 C 184.193 52.259, 191.429 52.493, 199.556 48.516 C 205.967 45.380, 208.588 41.944, 213.088 30.781 C 215.406 25.032, 216.662 23.040, 217.716 23.445 C 218.512 23.750, 220.027 24, 221.082 24 C 222.333 24, 223 24.695, 223 26 C 223 27.100, 222.550 28, 222 28 C 221.450 28, 221 28.494, 221 29.099 C 221 29.703, 219.094 34.090, 216.765 38.849 C 211.238 50.142, 205.438 55.993, 196.918 58.870 C 187.027 62.210, 184.616 61.793, 169 54.042 C 156.899 48.036, 149.860 45.997, 138.882 45.318 C 127.814 44.634, 119.590 45.891, 107.252 50.152 C 95.329 54.269, 85.035 54.170, 73.170 49.825 C 65.311 46.946, 63.424 46.649, 53 46.644 C 40.164 46.637, 35.367 47.863, 26 53.544 C 17.939 58.433, 11.860 64.970, 7.032 73.940 C 4.682 78.306, 2.139 82.116, 1.380 82.408 C 0.621 82.699, -0 83.642, -0 84.504 C 0 87.985, 4.171 83.702, 7.558 76.741 C 9.471 72.811, 11.381 69.349, 11.802 69.048 C 12.224 68.747, 13.563 67.206, 14.777 65.624 C 19.612 59.329, 28.347 53.506, 37.352 50.577 C 45.192 48.027, 47.048 47.789, 55.298 48.274 C 61.775 48.655, 66.721 49.627, 72 51.557 C 78.371 53.886, 81.081 54.302, 90 54.322 C 99.151 54.342, 101.736 53.937, 110.125 51.166 C 121.459 47.422, 128.817 45.895, 129.579 47.128 C 129.878 47.611, 131.032 47.518, 132.149 46.920 C 133.655 46.114, 136.654 46.257, 143.794 47.474 C 151.442 48.777, 156.079 50.371, 166.455 55.260 C 177.768 60.592, 180.429 61.459, 186.500 61.793 C 199.992 62.534, 210.946 55.731, 216.766 42.996 C 218.399 39.423, 220.695 34.387, 221.868 31.805 C 223.040 29.223, 224 25.780, 224 24.154 C 224 21.495, 223.701 21.220, 221.019 21.406 C 219.379 21.519, 217.888 21.164, 217.705 20.616 C 217.523 20.069, 218.859 16.218, 220.675 12.060 C 224.553 3.177, 224.902 0, 222 0 C 220.900 0, 220 0.524, 220 1.165 C 220 2.362, 215.124 15.382, 212.011 22.500 C 211.048 24.700, 209.919 27.625, 209.502 29 C 205.907 40.845, 198.208 47.423, 188 47.368 C 183.351 47.344, 180.498 46.381, 169.553 41.142 C 156.098 34.701, 146.560 32.002, 137.250 32.001 L 132 32 132 28.593 L 132 25.185 137.750 24.802 C 145.937 24.256, 155.777 26.188, 168.833 30.905 C 175.066 33.157, 181.920 35, 184.063 35 C 188.275 35, 196 32.341, 196 30.891 C 196 30.401, 196.563 29.994, 197.250 29.988 C 197.938 29.981, 199.608 28.293, 200.962 26.238 C 204.277 21.206, 213.111 1.832, 212.680 0.539 C 212.490 -0.029, 209.976 4.230, 207.092 10.003 M 220.732 55.284 C 219.254 57.222, 217.548 59.864, 216.942 61.154 C 215.442 64.344, 207.681 70.117, 201 73.011 C 196.686 74.880, 193.667 75.405, 187 75.447 C 176.783 75.511, 172.494 74.033, 159.145 65.853 C 146.937 58.372, 140.933 56.487, 129.500 56.548 C 120.326 56.596, 116.447 57.473, 107.391 61.546 C 94.661 67.271, 82.035 67.260, 67.003 61.510 C 59.102 58.487, 56.162 57.862, 49.503 57.788 C 40.740 57.689, 37.325 58.781, 30.202 63.958 C 25.466 67.401, 20.549 74.436, 18.800 80.275 C 18.177 82.352, 16.240 85.703, 14.494 87.722 L 11.320 91.394 6.415 89.447 C 3.717 88.376, 1.170 87.350, 0.755 87.167 C 0.340 86.983, 0 88.007, 0 89.441 C 0 92.762, 3.113 94.041, 10.815 93.884 C 13.942 93.820, 15.713 93.562, 14.750 93.311 C 12.484 92.718, 12.540 92.347, 15.291 89.702 C 16.550 88.491, 18.894 84.350, 20.500 80.500 C 23.431 73.468, 30.970 64, 33.637 64 C 34.387 64, 35 63.649, 35 63.219 C 35 61.820, 41.357 59.921, 48 59.337 C 53.638 58.842, 55.561 59.168, 62.500 61.796 C 82.705 69.447, 92.343 69.630, 109.390 62.683 C 117.933 59.202, 120.817 58.510, 128 58.216 C 138.969 57.768, 145.752 59.908, 158.821 67.939 C 170.411 75.061, 174.238 76.530, 183.524 77.420 C 192.110 78.243, 199.313 76.515, 207.615 71.640 C 213.932 67.930, 216.885 65.017, 221.297 58.141 C 224.791 52.695, 224.362 50.525, 220.732 55.284 M 117 74.718 C 115.625 74.963, 111.125 76.668, 107 78.507 C 102.875 80.346, 96.699 82.353, 93.275 82.965 C 87.516 83.996, 85.833 83.805, 70.775 80.418 C 61.824 78.405, 52.577 76.796, 50.226 76.843 C 41.818 77.010, 33.785 82.481, 30.540 90.250 C 28.401 95.370, 30.435 95.027, 33.092 89.819 C 38.356 79.501, 47.519 76.278, 61 80.003 C 77.026 84.432, 81.429 85.152, 90 84.748 C 96.839 84.425, 99.770 83.753, 105 81.304 C 118.888 74.803, 128.557 74.589, 143.726 80.447 C 160.252 86.830, 173.607 88.777, 188.719 87.007 C 202.539 85.388, 224 78.094, 224 75.015 C 224 73.868, 221.413 74.719, 218 76.987 C 210.910 81.699, 192.351 86, 179.108 86 C 166.381 86, 159.760 84.472, 138.500 76.626 C 131.755 74.136, 124.085 73.456, 117 74.718" stroke="none" fill="#0c1509" fill-rule="evenodd"/>
</svg>