<svg xmlns="http://www.w3.org/2000/svg" width="865" height="1536" viewBox="0 0 865 1536" version="1.1">
	<path d="M 67.500 16.130 C 62.550 16.611, 54.215 17.401, 48.977 17.887 C 41.096 18.617, 38.252 19.380, 32.477 22.313 C 28.640 24.262, 24.258 26.164, 22.741 26.539 C 21.223 26.915, 19.734 27.622, 19.432 28.111 C 19.129 28.600, 18.071 29, 17.081 29 C 16.090 29, 13.621 30.125, 11.595 31.500 C 9.201 33.124, 6.526 34, 3.956 34 L 0 34 0 60.500 L 0 87 4.450 87 C 7.247 87, 9.198 86.474, 9.700 85.583 C 10.140 84.804, 12.657 81.891, 15.293 79.110 C 17.928 76.330, 20.552 72.716, 21.122 71.081 C 21.790 69.165, 23.998 66.954, 27.329 64.866 C 30.173 63.083, 33.400 60.587, 34.500 59.318 C 36.847 56.612, 47.279 51.405, 52.123 50.523 C 53.980 50.185, 58.875 49.744, 63 49.542 C 67.125 49.341, 73.073 48.713, 76.218 48.146 C 81.788 47.142, 88.484 47.543, 90.500 49.001 C 91.050 49.399, 92.823 50.041, 94.441 50.429 C 96.058 50.817, 99.188 52.566, 101.397 54.317 C 107.257 58.961, 111.777 60.683, 120.099 61.440 C 132.577 62.576, 138.083 64.084, 149 69.361 L 159.500 74.435 181 74.458 C 197.935 74.476, 203.774 74.131, 208.500 72.833 C 211.800 71.926, 216.750 70.881, 219.500 70.511 C 222.250 70.141, 225.986 69.382, 227.802 68.824 C 230.750 67.919, 231.340 68.084, 233.302 70.359 C 234.511 71.761, 238.426 74.233, 242.002 75.852 C 248.563 78.822, 251.393 81.148, 253.440 85.257 C 255.390 89.169, 259.531 90.350, 270.435 90.107 C 275.920 89.985, 283.312 90.195, 286.860 90.575 C 293.042 91.237, 293.543 91.502, 298.905 96.940 C 303.850 101.955, 305.313 102.821, 311.500 104.397 C 315.350 105.377, 322.236 107.489, 326.802 109.090 C 333.314 111.372, 336.836 112, 343.132 112 L 351.159 112 365.653 126.500 C 373.624 134.475, 380.563 141, 381.073 141 C 381.583 141, 382 141.675, 382 142.500 C 382 143.325, 382.420 144, 382.933 144 C 383.446 144, 384.142 144.872, 384.480 145.937 C 384.818 147.003, 387.176 149.253, 389.719 150.937 C 394.012 153.781, 394.982 154, 403.278 154 C 408.220 154, 415.327 154.751, 419.179 155.681 C 426.654 157.485, 425.739 156.620, 431.801 167.623 C 432.516 168.921, 434.050 170.492, 435.210 171.112 C 437.939 172.573, 441.487 176.427, 444.244 180.924 C 445.450 182.891, 447.238 185.372, 448.218 186.439 C 449.198 187.505, 450 188.891, 450 189.520 C 450 190.148, 451.238 191.286, 452.750 192.049 C 455.770 193.571, 459.907 197.884, 459.964 199.568 C 460.089 203.282, 463.492 211.433, 465.698 213.304 C 470.315 217.220, 472.211 219.444, 473.541 222.500 C 474.259 224.150, 477.468 228.263, 480.673 231.640 C 485.971 237.223, 487.045 237.886, 492.500 238.943 C 518.055 243.893, 520.300 244.660, 526.291 250.488 C 528.995 253.119, 530.429 253.889, 531.291 253.173 C 531.956 252.621, 532.851 252.159, 533.281 252.146 C 533.710 252.132, 536.460 250.906, 539.392 249.422 L 544.723 246.723 546.808 248.808 C 549.457 251.457, 553.590 253.541, 557.771 254.336 C 559.570 254.679, 562.266 256.093, 563.761 257.479 C 565.256 258.866, 566.810 260, 567.214 260 C 567.618 260, 568.657 261.370, 569.522 263.043 C 570.388 264.717, 572.087 266.540, 573.298 267.095 C 574.509 267.649, 576.353 269.992, 577.396 272.301 C 583.144 285.031, 584.343 286.935, 587.578 288.470 C 589.392 289.331, 591.182 290.997, 591.555 292.172 C 592.627 295.550, 597.963 300.838, 601.379 301.907 C 603.095 302.444, 608.003 303.450, 612.284 304.143 C 619.239 305.267, 620.337 305.753, 622.585 308.701 C 623.969 310.515, 624.775 312, 624.377 312 C 622.383 312, 628.715 317.001, 632.575 318.475 C 635.655 319.652, 637.185 320.889, 637.599 322.539 C 638.703 326.936, 645.255 330.357, 659.500 333.973 C 661.700 334.532, 667.158 334.991, 671.629 334.994 C 679.710 335, 679.765 335.017, 680.996 337.991 C 682.233 340.977, 687.482 345, 690.140 345 C 691.915 345, 699 350.780, 699 352.228 C 699 354.594, 704.144 359.847, 708.435 361.865 C 711.233 363.179, 713.892 365.437, 715.367 367.749 C 719.648 374.458, 721.894 375.848, 730.531 377.132 C 738.434 378.308, 738.524 378.355, 743.844 384.112 C 748.507 389.158, 749.801 389.987, 753.850 390.522 C 765.086 392.009, 769.160 393.312, 770.757 395.930 C 775.901 404.364, 776.381 404.830, 780.578 405.459 C 785.165 406.147, 788.221 408.842, 789.695 413.500 C 791.055 417.797, 796.618 420.208, 806.842 420.932 C 814.664 421.486, 815.366 421.726, 818.092 424.777 C 819.692 426.567, 821 428.645, 821 429.395 C 821 430.145, 823.025 432.418, 825.500 434.446 L 830 438.134 830 447.032 C 830 454.512, 829.719 456.080, 828.235 456.874 C 827.264 457.394, 820.414 458.333, 813.014 458.961 C 796.396 460.372, 791.129 461.987, 786.713 467.024 C 784.236 469.850, 781.870 471.273, 777.562 472.525 C 770.031 474.714, 762 479.345, 762 481.498 C 762 481.851, 760.709 484.021, 759.132 486.320 C 757.555 488.619, 755.283 492.660, 754.085 495.300 C 752.886 497.939, 751.272 500.342, 750.498 500.639 C 746.316 502.244, 742.833 513.364, 743.093 524.287 C 743.284 532.307, 741.856 543.668, 740.086 548.225 C 739.599 549.476, 736.794 553.038, 733.851 556.140 C 730.908 559.242, 725.714 564.895, 722.310 568.704 C 714.685 577.232, 711.147 578.680, 703.419 576.433 C 699.389 575.262, 697.313 573.847, 694.032 570.037 C 687.881 562.894, 684.301 561.730, 666.932 561.219 C 649.039 560.693, 642.551 562.052, 634.478 568.017 C 631.465 570.242, 629 572.494, 629 573.020 C 629 573.546, 628.237 574.868, 627.305 575.956 C 623.228 580.718, 622.162 591.639, 624.352 606.202 C 625.676 615.007, 627.333 617.858, 632.070 619.482 C 634.406 620.283, 637.097 626.674, 638.116 633.841 C 639.226 641.648, 644.196 653.865, 647.809 657.668 C 650.368 660.361, 650.492 660.958, 650.329 669.832 C 650.201 676.771, 649.774 679.464, 648.662 680.332 C 647.840 680.975, 646.391 684.327, 645.443 687.783 L 643.718 694.066 646.841 697.952 C 648.559 700.090, 650.477 704.012, 651.104 706.669 C 652.875 714.172, 655.070 720, 656.125 720 C 656.653 720, 657.628 720.455, 658.292 721.011 C 658.956 721.567, 660.703 722.922, 662.173 724.023 C 663.643 725.124, 665.165 727.474, 665.554 729.246 C 666.038 731.451, 668.429 734.474, 673.131 738.827 C 676.909 742.325, 680 745.771, 680 746.484 C 680 747.986, 682.881 754.456, 685.028 757.778 C 685.837 759.030, 688.403 760.978, 690.729 762.106 C 694.945 764.152, 698.708 767.434, 702.500 772.374 C 703.600 773.807, 704.818 774.984, 705.206 774.990 C 705.594 774.995, 707.560 776.119, 709.576 777.487 C 711.591 778.854, 715.698 780.748, 718.702 781.695 C 722.505 782.894, 724.571 784.189, 725.503 785.959 C 727.194 789.167, 730.220 791.807, 735.935 795.058 C 740.410 797.605, 740.440 797.658, 742.166 806.237 C 744.026 815.485, 749.151 827, 751.407 827 C 752.166 827, 753.094 827.788, 753.470 828.750 C 754.478 831.326, 756.962 846.965, 756.983 850.857 C 757.016 857.196, 760.444 868.510, 765.055 877.500 C 769.305 885.785, 769.726 887.275, 770.356 896.244 C 771.067 906.380, 773.506 921.017, 774.956 923.858 C 775.417 924.761, 776.557 927.525, 777.489 930 C 778.422 932.475, 780.255 936.847, 781.565 939.716 C 783.685 944.361, 783.969 946.550, 784.168 959.716 C 784.560 985.823, 784.419 997.241, 783.558 1009.049 C 782.865 1018.550, 782.985 1021.210, 784.236 1024.049 C 785.072 1025.947, 786.530 1029.750, 787.475 1032.500 C 789.796 1039.255, 794.134 1048, 795.164 1048 C 796.649 1048, 799.440 1051.424, 801.908 1056.273 C 804.074 1060.527, 809.569 1065.996, 811.683 1066.002 C 812.132 1066.004, 813.793 1068.479, 815.373 1071.502 C 816.953 1074.526, 818.612 1077, 819.059 1077 C 819.992 1077, 830 1087.129, 830 1088.072 C 830 1089, 833.173 1092.560, 842.412 1102 C 846.987 1106.675, 851.710 1112.431, 852.907 1114.791 C 856.104 1121.096, 858.128 1122.782, 861.849 1122.235 L 865 1121.773 865 1098.387 L 865 1075 861.584 1075 C 858.821 1075, 857.591 1074.271, 855.147 1071.186 C 853.486 1069.088, 851.596 1066.276, 850.947 1064.936 C 850.298 1063.596, 847.458 1060.675, 844.636 1058.445 C 841.813 1056.214, 839.003 1053.385, 838.391 1052.157 C 836.846 1049.058, 833.118 1045.236, 829.397 1042.937 C 827.308 1041.646, 825.410 1039.037, 823.716 1035.130 C 821.031 1028.939, 818.100 1025.410, 813.728 1023.103 C 806.859 1019.477, 807.375 991.946, 814.514 981.158 C 817.183 977.125, 817.160 976.605, 814.010 969.500 C 811.400 963.614, 810.152 956.230, 809.025 940 C 807.581 919.212, 804.154 903.921, 799.930 899.426 C 797.688 897.039, 795.544 889.984, 794.566 881.776 C 792.840 867.280, 791.619 859.404, 790.960 858.500 C 790.559 857.950, 789.904 855.974, 789.505 854.108 C 789.106 852.243, 787.529 849.494, 786.001 848.001 C 782.018 844.108, 781.382 842.499, 780.070 833 C 776.174 804.785, 776.183 804.812, 770.206 802.313 C 768.395 801.556, 766.748 800.389, 766.546 799.718 C 766.345 799.048, 765.225 794.309, 764.059 789.188 C 761.527 778.067, 760.570 776.343, 756.106 774.870 C 752.294 773.612, 747 769.310, 747 767.470 C 747 765.391, 742.935 761, 741.011 761 C 739.997 761, 739.017 760.550, 738.833 760 C 738.650 759.449, 734.968 758.323, 730.651 757.498 C 726.334 756.672, 722.430 755.766, 721.974 755.484 C 721.519 755.202, 720.592 753.291, 719.915 751.236 C 718.503 746.946, 717.146 745.653, 711.281 743.004 C 708.177 741.601, 706.901 740.359, 706.450 738.299 C 704.805 730.783, 701.962 727.042, 696.589 725.324 C 694.251 724.576, 693.405 723.456, 692.290 719.633 C 691.326 716.326, 689.489 713.518, 686.272 710.436 C 683.726 707.996, 681.305 706, 680.893 706 C 680.481 706, 679.179 703.423, 678.001 700.273 C 676.119 695.244, 675.811 691.981, 675.477 673.523 C 674.852 639.085, 673.873 633.889, 666.601 626.401 C 664.318 624.050, 662.506 620.784, 661.460 617.135 C 660.572 614.036, 659.003 610.050, 657.973 608.279 C 656.944 606.507, 655.795 603.357, 655.420 601.279 C 655.046 599.200, 654.371 597.032, 653.921 596.459 C 653.471 595.887, 652.846 593.966, 652.534 592.191 C 651.912 588.660, 652.937 587.923, 660.993 586.113 C 665.746 585.045, 674.143 588.358, 678.204 592.902 C 679.863 594.759, 683.702 597.054, 687.740 598.604 C 694.214 601.088, 695.112 601.174, 709 600.643 C 727.782 599.925, 735.850 596.993, 735.968 590.843 C 735.990 589.718, 737.796 588.621, 741.595 587.426 C 744.673 586.458, 747.421 585.066, 747.702 584.333 C 747.984 583.600, 748.728 582.995, 749.357 582.989 C 749.986 582.982, 751.375 581.151, 752.444 578.920 C 753.514 576.688, 755.295 574.377, 756.403 573.784 C 761.459 571.078, 763.583 565.531, 764.644 552.260 C 765.360 543.306, 766.736 539.383, 771.090 533.887 C 773.619 530.693, 774.397 528.491, 775.209 522.225 C 775.759 517.976, 776.841 513.073, 777.614 511.330 C 778.386 509.586, 779.301 506.661, 779.646 504.830 C 780.621 499.664, 782.510 498.265, 790.337 496.914 C 798.340 495.533, 803.208 493.419, 810.334 488.228 C 814.014 485.547, 817.235 484.283, 823.834 482.928 C 835.037 480.628, 841.985 478.273, 844.564 475.899 C 845.700 474.855, 846.981 474, 847.411 474 C 847.841 474, 850.238 472.200, 852.737 470 C 856.373 466.799, 858.058 466, 861.167 466 L 865.052 466 864.776 450.750 L 864.500 435.500 861.401 435.670 C 858.537 435.828, 858.129 435.422, 856.013 430.317 C 853.903 425.228, 853.807 424.199, 854.783 417.241 C 856.076 408.029, 855.242 406.316, 847.695 402.680 C 840.199 399.068, 839.827 398.988, 825.796 397.985 L 813.021 397.072 807.115 391.036 C 803.866 387.716, 800.589 385, 799.833 385 C 798.331 385, 795.126 382.066, 791.890 377.730 C 789.203 374.129, 785.331 372.185, 775.372 369.441 C 765.470 366.712, 763.797 365.857, 762.082 362.654 C 760.562 359.813, 749.446 354.415, 742.993 353.383 C 738.306 352.633, 734 349.636, 734 347.123 C 734 345.388, 727.842 337.939, 726.313 337.824 C 724.639 337.698, 722.264 335.426, 721.596 333.312 C 720.723 330.548, 714.573 325.096, 710.875 323.807 C 709.328 323.267, 706.553 320.728, 704.707 318.163 C 702.137 314.591, 700.200 313.099, 696.426 311.788 C 692.414 310.393, 675.602 308.233, 666.500 307.943 C 665.272 307.904, 662.764 305.588, 660 301.940 C 657.525 298.674, 654.481 295.726, 653.236 295.389 C 651.990 295.052, 649.049 292.247, 646.700 289.156 C 642.219 283.262, 641.134 282.517, 631.629 278.817 C 628.400 277.560, 625.509 275.884, 625.205 275.092 C 624.182 272.425, 621.236 270.218, 614.916 267.382 C 607.207 263.922, 605.026 261.916, 601.998 255.500 C 600.700 252.750, 599.333 250.275, 598.960 250 C 598.587 249.725, 597.656 247.748, 596.891 245.606 C 595.984 243.067, 594.232 240.911, 591.856 239.410 C 589.851 238.144, 585.867 234.946, 583.002 232.304 C 580.137 229.662, 575.927 226.517, 573.646 225.315 C 561.847 219.097, 561.420 218.977, 547.304 217.938 C 532.438 216.844, 530.306 216.460, 528 214.466 C 527.175 213.752, 524.475 212.406, 522 211.474 C 519.525 210.543, 516.150 209.193, 514.500 208.473 C 512.850 207.754, 509.700 206.841, 507.500 206.444 C 502.120 205.474, 498.370 202.665, 496.853 198.470 C 496.163 196.562, 495.239 195, 494.799 195 C 494.360 195, 494 194.314, 494 193.475 C 494 192.636, 491.412 189.090, 488.250 185.594 C 472.432 168.112, 468.921 163.912, 464.742 157.476 C 459.805 149.872, 457.763 147.501, 453.644 144.587 C 452.156 143.535, 450.257 141.237, 449.423 139.480 C 447.212 134.820, 442.455 130.341, 438.979 129.646 C 437.312 129.312, 434.854 127.945, 433.517 126.608 C 430.627 123.718, 423.346 120.890, 412.886 118.595 C 402.882 116.400, 396.952 112.560, 392.231 105.220 C 386.593 96.456, 381.628 90.083, 380.405 90.039 C 379.803 90.018, 378.533 89.141, 377.583 88.092 C 373.303 83.363, 357.006 77.479, 345.500 76.508 C 323.049 74.615, 316.087 72.302, 308.074 64.076 C 302.417 58.268, 296.981 56.170, 283.259 54.499 C 274.910 53.482, 272.383 52.767, 269.576 50.626 C 267.683 49.182, 265.531 48, 264.794 48 C 264.057 48, 261.037 46.408, 258.082 44.462 C 255.126 42.515, 249.962 39.998, 246.605 38.867 C 243.248 37.736, 240.187 36.303, 239.804 35.683 C 239.384 35.004, 234.895 34.399, 228.533 34.163 C 219.663 33.835, 217.035 34.107, 212.229 35.854 C 199.991 40.301, 188.340 42.281, 177.579 41.743 C 167.526 41.240, 165.039 40.557, 154.554 35.422 C 151.833 34.090, 148.661 33, 147.504 33 C 146.347 33, 144.930 32.530, 144.355 31.955 C 143.780 31.380, 139.977 30.670, 135.905 30.377 C 131.832 30.084, 127.600 29.490, 126.500 29.056 C 125.400 28.622, 121.800 27.247, 118.500 26.001 C 115.200 24.754, 110.025 22.394, 107 20.757 C 97.858 15.810, 85.588 14.372, 67.500 16.130" stroke="none" fill="#0c1509" fill-rule="evenodd"/>
</svg>