<svg xmlns="http://www.w3.org/2000/svg" viewBox="0 0 920 1506"><path d="M 632,0 L 610,26 L 597,32 L 580,31 L 566,35 L 555,35 L 548,41 L 534,62 L 530,64 L 525,63 L 512,72 L 496,78 L 492,83 L 491,91 L 484,105 L 476,112 L 453,120 L 448,124 L 438,146 L 423,155 L 398,152 L 388,157 L 383,157 L 361,131 L 352,129 L 341,130 L 336,133 L 326,149 L 317,157 L 282,166 L 269,163 L 264,168 L 260,179 L 258,202 L 250,214 L 235,225 L 223,245 L 212,254 L 183,254 L 177,257 L 162,278 L 152,285 L 122,284 L 112,292 L 103,284 L 97,274 L 89,271 L 75,256 L 67,252 L 58,255 L 55,260 L 41,267 L 31,265 L 14,253 L 8,253 L 1,257 L 0,260 L 8,255 L 920,255 L 920,1477 L 920,1506 L 0,1506 L 0,260 L 0,260 L 1,257 L 8,253 L 14,253 L 31,265 L 41,267 L 55,260 L 58,255 L 67,252 L 75,256 L 89,271 L 97,274 L 103,284 L 112,292 L 122,284 L 152,285 L 162,278 L 177,257 L 183,254 L 212,254 L 223,245 L 235,225 L 250,214 L 258,202 L 260,179 L 264,168 L 269,163 L 282,166 L 317,157 L 326,149 L 336,133 L 341,130 L 352,129 L 361,131 L 383,157 L 388,157 L 398,152 L 423,155 L 438,146 L 448,124 L 453,120 L 476,112 L 484,105 L 491,91 L 492,83 L 496,78 L 512,72 L 525,63 L 530,64 L 534,62 L 548,41 L 555,35 L 566,35 L 580,31 L 597,32 L 610,26 L 632,0 Z" fill="black" /></svg>