<svg xmlns="http://www.w3.org/2000/svg" viewBox="-5000 0 5920 1506"><path d="M 632,0 L 610,26 L 597,32 L 580,31 L 566,35 L 555,35 L 548,41 L 534,62 L 530,64 L 525,63 L 512,72 L 496,78 L 492,83 L 491,91 L 484,105 L 476,112 L 453,120 L 448,124 L 438,146 L 423,155 L 398,152 L 388,157 L 383,157 L 361,131 L 352,129 L 341,130 L 336,133 L 326,149 L 317,157 L 282,166 L 269,163 L 264,168 L 260,179 L 258,202 L 250,214 L 235,225 L 223,245 L 212,254 L 183,254 L 177,257 L 162,278 L 152,285 L 122,284 L 112,292 L 103,284 L 97,274 L 89,271 L 75,256 L 67,252 L 58,255 L 55,260 L 41,267 L 31,265 L 14,253 L 8,253 L 1,257 L 0,260 L 8,255 L 15,255 L 31,267 L 41,269 L 57,260 L 60,256 L 67,254 L 73,257 L 83,269 L 95,275 L 100,280 L 103,288 L 110,293 L 117,292 L 125,285 L 131,287 L 153,287 L 163,280 L 176,261 L 183,256 L 211,256 L 223,249 L 237,226 L 242,221 L 248,219 L 259,204 L 262,179 L 271,164 L 276,167 L 285,167 L 318,159 L 326,153 L 334,139 L 343,131 L 360,133 L 376,154 L 383,159 L 389,159 L 401,153 L 423,157 L 440,147 L 445,132 L 454,122 L 479,113 L 484,109 L 493,87 L 499,79 L 522,67 L 536,63 L 556,37 L 583,32 L 597,34 L 609,29 L 634,1 L 641,4 L 665,2 L 681,25 L 688,30 L 699,31 L 714,28 L 720,31 L 730,60 L 731,80 L 737,95 L 737,102 L 721,124 L 719,169 L 708,180 L 690,193 L 690,197 L 698,206 L 705,221 L 727,232 L 732,256 L 738,267 L 739,283 L 745,295 L 756,305 L 770,306 L 799,320 L 813,354 L 816,369 L 853,394 L 857,409 L 856,439 L 870,460 L 867,476 L 869,499 L 859,513 L 852,534 L 851,550 L 855,571 L 846,601 L 837,610 L 821,617 L 814,625 L 810,633 L 809,668 L 803,676 L 792,681 L 782,689 L 778,697 L 776,711 L 758,721 L 752,738 L 743,744 L 733,755 L 729,767 L 728,780 L 723,787 L 703,803 L 699,813 L 699,820 L 695,825 L 676,837 L 667,849 L 663,861 L 663,884 L 652,904 L 655,918 L 652,937 L 642,957 L 643,990 L 648,1008 L 641,1027 L 639,1045 L 648,1062 L 648,1089 L 659,1114 L 656,1146 L 672,1169 L 674,1177 L 669,1204 L 678,1224 L 678,1235 L 669,1255 L 670,1266 L 676,1281 L 672,1316 L 689,1332 L 692,1352 L 695,1358 L 713,1365 L 727,1384 L 736,1386 L 746,1381 L 760,1383 L 770,1389 L 778,1405 L 788,1412 L 802,1410 L 819,1419 L 844,1416 L 868,1422 L 877,1430 L 886,1460 L 892,1466 L 907,1468 L 914,1471 L 920,1477 L 920,1477 L 920,1506 L -5000,1506 L -5000,260 L 0,260 L 1,257 L 8,253 L 14,253 L 31,265 L 41,267 L 55,260 L 58,255 L 67,252 L 75,256 L 89,271 L 97,274 L 103,284 L 112,292 L 122,284 L 152,285 L 162,278 L 177,257 L 183,254 L 212,254 L 223,245 L 235,225 L 250,214 L 258,202 L 260,179 L 264,168 L 269,163 L 282,166 L 317,157 L 326,149 L 336,133 L 341,130 L 352,129 L 361,131 L 383,157 L 388,157 L 398,152 L 423,155 L 438,146 L 448,124 L 453,120 L 476,112 L 484,105 L 491,91 L 492,83 L 496,78 L 512,72 L 525,63 L 530,64 L 534,62 L 548,41 L 555,35 L 566,35 L 580,31 L 597,32 L 610,26 L 632,0 Z" fill="black" /></svg>