<svg xmlns="http://www.w3.org/2000/svg" viewBox="0 0 5920 1506"><path d="M 5632,0 L 5610,26 L 5597,32 L 5580,31 L 5566,35 L 5555,35 L 5548,41 L 5534,62 L 5530,64 L 5525,63 L 5512,72 L 5496,78 L 5492,83 L 5491,91 L 5484,105 L 5476,112 L 5453,120 L 5448,124 L 5438,146 L 5423,155 L 5398,152 L 5388,157 L 5383,157 L 5361,131 L 5352,129 L 5341,130 L 5336,133 L 5326,149 L 5317,157 L 5282,166 L 5269,163 L 5264,168 L 5260,179 L 5258,202 L 5250,214 L 5235,225 L 5223,245 L 5212,254 L 5183,254 L 5177,257 L 5162,278 L 5152,285 L 5122,284 L 5112,292 L 5103,284 L 5097,274 L 5089,271 L 5075,256 L 5067,252 L 5058,255 L 5055,260 L 5041,267 L 5031,265 L 5014,253 L 5008,253 L 5001,257 L 5000,260 L 5008,255 L 5015,255 L 5031,267 L 5041,269 L 5057,260 L 5060,256 L 5067,254 L 5073,257 L 5083,269 L 5095,275 L 5100,280 L 5103,288 L 5110,293 L 5117,292 L 5125,285 L 5131,287 L 5153,287 L 5163,280 L 5176,261 L 5183,256 L 5211,256 L 5223,249 L 5237,226 L 5242,221 L 5248,219 L 5259,204 L 5262,179 L 5271,164 L 5276,167 L 5285,167 L 5318,159 L 5326,153 L 5334,139 L 5343,131 L 5360,133 L 5376,154 L 5383,159 L 5389,159 L 5401,153 L 5423,157 L 5440,147 L 5445,132 L 5454,122 L 5479,113 L 5484,109 L 5493,87 L 5499,79 L 5522,67 L 5536,63 L 5556,37 L 5583,32 L 5597,34 L 5609,29 L 5634,1 L 5641,4 L 5665,2 L 5681,25 L 5688,30 L 5699,31 L 5714,28 L 5720,31 L 5730,60 L 5731,80 L 5737,95 L 5737,102 L 5721,124 L 5719,169 L 5708,180 L 5690,193 L 5690,197 L 5698,206 L 5705,221 L 5727,232 L 5732,256 L 5738,267 L 5739,283 L 5745,295 L 5756,305 L 5770,306 L 5799,320 L 5813,354 L 5816,369 L 5853,394 L 5857,409 L 5856,439 L 5870,460 L 5867,476 L 5869,499 L 5859,513 L 5852,534 L 5851,550 L 5855,571 L 5846,601 L 5837,610 L 5821,617 L 5814,625 L 5810,633 L 5809,668 L 5803,676 L 5792,681 L 5782,689 L 5778,697 L 5776,711 L 5758,721 L 5752,738 L 5743,744 L 5733,755 L 5729,767 L 5728,780 L 5723,787 L 5703,803 L 5699,813 L 5699,820 L 5695,825 L 5676,837 L 5667,849 L 5663,861 L 5663,884 L 5652,904 L 5655,918 L 5652,937 L 5642,957 L 5643,990 L 5648,1008 L 5641,1027 L 5639,1045 L 5648,1062 L 5648,1089 L 5659,1114 L 5656,1146 L 5672,1169 L 5674,1177 L 5669,1204 L 5678,1224 L 5678,1235 L 5669,1255 L 5670,1266 L 5676,1281 L 5672,1316 L 5689,1332 L 5692,1352 L 5695,1358 L 5713,1365 L 5727,1384 L 5736,1386 L 5746,1381 L 5760,1383 L 5770,1389 L 5778,1405 L 5788,1412 L 5802,1410 L 5819,1419 L 5844,1416 L 5868,1422 L 5877,1430 L 5886,1460 L 5892,1466 L 5907,1468 L 5914,1471 L 5920,1477 L 5920,1477 L 5920,1506 L 0,1506 L 0,260 L 5000,260 L 5001,257 L 5008,253 L 5014,253 L 5031,265 L 5041,267 L 5055,260 L 5058,255 L 5067,252 L 5075,256 L 5089,271 L 5097,274 L 5103,284 L 5112,292 L 5122,284 L 5152,285 L 5162,278 L 5177,257 L 5183,254 L 5212,254 L 5223,245 L 5235,225 L 5250,214 L 5258,202 L 5260,179 L 5264,168 L 5269,163 L 5282,166 L 5317,157 L 5326,149 L 5336,133 L 5341,130 L 5352,129 L 5361,131 L 5383,157 L 5388,157 L 5398,152 L 5423,155 L 5438,146 L 5448,124 L 5453,120 L 5476,112 L 5484,105 L 5491,91 L 5492,83 L 5496,78 L 5512,72 L 5525,63 L 5530,64 L 5534,62 L 5548,41 L 5555,35 L 5566,35 L 5580,31 L 5597,32 L 5610,26 L 5632,0 Z" fill="black" /></svg>