<svg xmlns="http://www.w3.org/2000/svg" width="847" height="1536" viewBox="0 0 847 1536" version="1.1">
	<path d="M 586.792 7.740 C 586.515 15.073, 586.356 15.549, 583.750 16.794 C 582.237 17.518, 581 18.535, 581 19.055 C 581 19.575, 580.100 20, 579 20 C 577.900 20, 577 20.414, 577 20.921 C 577 21.427, 575.650 22.138, 574 22.500 C 572.350 22.862, 571 23.546, 571 24.019 C 571 24.492, 567.850 25.189, 564 25.569 C 560.150 25.948, 557 26.650, 557 27.129 C 557 27.608, 556.100 28, 555 28 C 553.900 28, 553 28.392, 553 28.871 C 553 29.350, 550.750 30.041, 548 30.406 C 545.250 30.770, 543 31.503, 543 32.034 C 543 32.565, 542.148 33, 541.107 33 C 540.066 33, 538.944 33.704, 538.614 34.563 C 538.284 35.423, 537.578 35.857, 537.046 35.528 C 536.513 35.199, 534.861 36.296, 533.374 37.965 C 531.886 39.634, 530.069 41, 529.335 41 C 528.601 41, 528 41.450, 528 42 C 528 42.550, 527.100 43, 526 43 C 524.900 43, 524 43.408, 524 43.906 C 524 44.405, 521.750 45.122, 519 45.500 C 516.250 45.878, 514 46.486, 514 46.850 C 514 47.849, 508.621 50.025, 504.498 50.694 C 502 51.099, 501.265 51.553, 502.173 52.128 C 503.119 52.728, 502.855 52.974, 501.250 52.985 C 500.012 52.993, 499 53.401, 499 53.892 C 499 54.382, 497.789 55.087, 496.309 55.459 C 494.829 55.830, 492.917 56.939, 492.059 57.924 C 491.202 58.908, 489.600 60.001, 488.500 60.351 C 487.400 60.701, 485.193 62.116, 483.594 63.494 C 481.996 64.872, 480.282 66, 479.785 66 C 479.289 66, 479.160 66.450, 479.500 67 C 479.840 67.550, 479.432 68, 478.593 68 C 477.755 68, 475.688 69.350, 474 71 C 472.312 72.650, 470.159 74.007, 469.216 74.015 C 467.742 74.028, 467.712 74.168, 469 75 C 470.108 75.716, 470.155 75.973, 469.179 75.985 C 468.452 75.993, 467.230 76.562, 466.463 77.250 C 463.377 80.018, 462.053 81, 461.407 81 C 461.034 81, 459.768 82.037, 458.593 83.306 C 457.417 84.574, 455.668 85.913, 454.705 86.283 C 453.742 86.652, 452.653 87.741, 452.284 88.703 C 451.259 91.373, 443.033 98.998, 441.158 99.015 C 439.722 99.029, 439.701 99.161, 441 100 C 442.274 100.823, 442.229 100.972, 440.702 100.985 C 439.713 100.993, 437.845 102.144, 436.549 103.541 C 434.895 105.327, 434.040 105.698, 433.676 104.791 C 433.367 104.022, 433.126 104.265, 433.079 105.392 C 433.036 106.432, 431.762 108.540, 430.250 110.076 C 425.992 114.401, 425.130 115.632, 424.441 118.379 C 424.089 119.781, 422.969 121.192, 421.952 121.515 C 420.935 121.838, 419.831 122.956, 419.500 124 C 419.169 125.044, 418.044 126.169, 417 126.500 C 415.956 126.831, 414.832 127.955, 414.501 128.997 C 414.079 130.327, 412.570 131.092, 409.450 131.560 C 407.002 131.927, 405 132.626, 405 133.114 C 405 133.601, 404.325 134, 403.500 134 C 402.675 134, 402 134.430, 402 134.955 C 402 135.480, 400.429 136.204, 398.509 136.564 C 396.589 136.925, 395.265 137.620, 395.568 138.110 C 395.870 138.599, 395.079 139.007, 393.809 139.015 C 391.951 139.028, 391.793 139.220, 393 140 C 394.221 140.789, 394.095 140.972, 392.321 140.985 C 391.123 140.993, 389.468 141.675, 388.643 142.500 C 387.818 143.325, 386.709 144, 386.178 144 C 385.648 144, 384.955 144.675, 384.638 145.500 C 384.322 146.325, 383.149 147, 382.031 147 C 380.914 147, 380 147.450, 380 148 C 380 148.550, 379.073 149, 377.941 149 C 376.809 149, 376.125 149.394, 376.423 149.875 C 376.720 150.356, 375.172 151.037, 372.982 151.387 C 370.792 151.737, 369 152.468, 369 153.012 C 369 153.555, 367.913 154, 366.583 154 C 365.254 154, 363.978 154.562, 363.748 155.250 C 363.215 156.841, 351.739 156.716, 351.204 155.113 C 351 154.501, 349.746 154, 348.417 154 C 347.087 154, 346 153.572, 346 153.050 C 346 152.527, 343.300 151.794, 340 151.420 C 336.700 151.047, 334 150.350, 334 149.871 C 334 149.392, 331.840 149, 329.200 149 C 326.560 149, 323.969 148.569, 323.442 148.042 C 322.915 147.515, 317.688 146.952, 311.827 146.792 C 302.054 146.524, 301.018 146.674, 299.335 148.599 C 298.326 149.753, 295.813 151.011, 293.750 151.394 C 291.688 151.777, 290 152.520, 290 153.045 C 290 153.570, 289.293 154, 288.429 154 C 287.564 154, 286.182 154.675, 285.357 155.500 C 284.532 156.325, 282.963 157, 281.870 157 C 280.776 157, 280.160 157.450, 280.500 158 C 280.851 158.567, 280.010 159, 278.559 159 C 277.152 159, 276 159.408, 276 159.906 C 276 160.405, 273.750 161.122, 270.999 161.500 C 268.249 161.878, 266.250 162.596, 266.558 163.094 C 266.866 163.592, 266.165 164, 265 164 C 263.835 164, 263.135 164.410, 263.445 164.911 C 263.755 165.413, 262.175 166.132, 259.935 166.511 C 257.694 166.890, 255.619 167.829, 255.323 168.600 C 255.028 169.370, 253.874 170, 252.760 170 C 251.646 170, 250.007 170.836, 249.117 171.857 C 248.228 172.878, 246.488 174.034, 245.250 174.424 C 244.013 174.815, 243 175.554, 243 176.067 C 243 176.580, 242.325 177, 241.500 177 C 240.675 177, 240 177.420, 240 177.933 C 240 178.446, 239.133 179.140, 238.074 179.477 C 235.783 180.203, 222 193.583, 222 195.079 C 222 195.651, 221.550 195.840, 221 195.500 C 220.450 195.160, 220 195.809, 220 196.941 C 220 198.073, 219.550 199, 219 199 C 218.404 199, 218.028 202.536, 218.070 207.750 C 218.117 213.569, 218.428 215.830, 219 214.500 C 219.599 213.106, 219.881 214.532, 219.930 219.205 L 220 225.911 214.587 231.455 C 211.609 234.505, 208.705 237, 208.132 237 C 207.559 237, 205.850 238.238, 204.333 239.750 C 202.817 241.262, 201.209 242.383, 200.760 242.241 C 200.311 242.098, 199.684 242.661, 199.365 243.491 C 199.047 244.321, 197.908 245, 196.834 245 C 195.760 245, 195.160 245.450, 195.500 246 C 195.840 246.550, 195.659 247, 195.098 247 C 194.536 247, 192.260 248.836, 190.039 251.079 C 187.817 253.323, 185.970 254.560, 185.932 253.829 C 185.895 253.098, 185.394 253.472, 184.820 254.660 C 184.166 256.010, 182.438 257.070, 180.207 257.489 C 177.557 257.986, 177.007 258.392, 178.069 259.064 C 179.122 259.730, 178.758 259.973, 176.691 259.985 C 175.146 259.993, 174.128 260.399, 174.430 260.886 C 174.731 261.374, 172.501 262.082, 169.475 262.460 C 166.449 262.838, 164.196 263.508, 164.468 263.949 C 164.741 264.390, 163.172 265.037, 160.982 265.387 C 158.792 265.737, 157 266.468, 157 267.012 C 157 267.555, 156.325 268, 155.500 268 C 154.675 268, 154 268.400, 154 268.889 C 154 269.377, 152.523 270.055, 150.718 270.393 C 148.912 270.732, 146.788 271.907, 145.997 273.005 C 145.206 274.102, 143.744 275, 142.748 275 C 141.752 275, 140.678 275.675, 140.362 276.500 C 140.045 277.325, 139.159 278, 138.393 278 C 137.627 278, 137 278.408, 137 278.906 C 137 279.405, 134.750 280.122, 132 280.500 C 129.250 280.878, 127 281.595, 127 282.094 C 127 282.592, 125.687 283, 124.083 283 C 122.479 283, 120.904 283.563, 120.583 284.250 C 120.117 285.250, 119.883 285.250, 119.417 284.250 C 119.096 283.562, 117.633 282.993, 116.167 282.985 C 114.329 282.974, 113.914 282.707, 114.831 282.125 C 115.739 281.550, 114.939 281.086, 112.321 280.667 C 110.198 280.328, 107.844 279.171, 107.058 278.080 C 106.276 276.995, 105.268 276.335, 104.818 276.613 C 104.368 276.891, 104 276.641, 104 276.059 C 104 275.477, 103.325 275, 102.500 275 C 101.675 275, 101 274.550, 101 274 C 101 273.450, 100.298 273, 99.441 273 C 98.584 273, 98.130 272.598, 98.434 272.107 C 98.738 271.615, 97.778 270.910, 96.302 270.540 C 94.826 270.169, 92.917 269.061, 92.059 268.076 C 91.202 267.092, 89.488 265.966, 88.250 265.576 C 87.013 265.185, 86 264.494, 86 264.041 C 86 263.588, 84.875 262.934, 83.500 262.589 C 82.125 262.244, 81 261.520, 81 260.981 C 81 260.441, 80.073 260, 78.941 260 C 77.809 260, 77.130 259.599, 77.432 259.110 C 77.735 258.620, 76.444 257.931, 74.564 257.578 C 72.684 257.225, 70.967 256.402, 70.750 255.749 C 70.281 254.343, 61.968 254.435, 61.088 255.855 C 60.764 256.377, 58.362 257.124, 55.750 257.516 C 53.138 257.907, 51 258.626, 51 259.114 C 51 259.601, 49.913 260, 48.583 260 C 47.254 260, 46.008 260.477, 45.813 261.060 C 45.339 262.484, 36.680 262.539, 36.207 261.121 C 36.001 260.504, 35.196 260, 34.417 260 C 33.637 260, 33 259.570, 33 259.045 C 33 258.520, 31.425 257.795, 29.500 257.434 C 27.575 257.073, 26 256.377, 26 255.889 C 26 255.400, 25.325 255, 24.500 255 C 23.675 255, 23 254.586, 23 254.079 C 23 253.573, 21.650 252.862, 20 252.500 C 18.350 252.138, 17 251.427, 17 250.921 C 17 250.414, 16.298 250, 15.441 250 C 14.584 250, 14.160 249.550, 14.500 249 C 14.891 248.367, 12.344 248, 7.559 248 L 0 248 0 285.825 L 0 323.650 32.665 323.575 C 57.961 323.517, 65.424 323.782, 65.748 324.750 C 65.978 325.437, 66.804 326, 67.583 326 C 68.362 326, 69 326.470, 69 327.045 C 69 327.620, 70.125 329.216, 71.500 330.591 C 72.875 331.966, 74 333.520, 74 334.045 C 74 335.977, 82.154 343.081, 85.031 343.656 C 86.664 343.983, 88 344.644, 88 345.125 C 88 345.606, 88.675 346, 89.500 346 C 90.325 346, 91 346.435, 91 346.967 C 91 347.561, 96.493 347.795, 105.250 347.573 C 119.976 347.201, 127 346.365, 127 344.984 C 127 344.546, 129.250 343.878, 132 343.500 C 134.750 343.122, 137 342.405, 137 341.906 C 137 341.408, 137.702 341, 138.559 341 C 139.416 341, 139.854 340.573, 139.531 340.051 C 139.208 339.528, 140.644 338.780, 142.722 338.388 C 144.800 337.996, 145.919 337.480, 145.209 337.241 C 144.305 336.936, 144.576 336.235, 146.112 334.903 C 147.319 333.856, 148.714 333, 149.212 333 C 149.710 333, 149.840 332.550, 149.500 332 C 149.160 331.450, 149.584 331, 150.441 331 C 151.298 331, 152 330.559, 152 330.019 C 152 329.480, 153.125 328.756, 154.500 328.411 C 155.875 328.066, 157 327.382, 157 326.892 C 157 326.401, 157.675 326, 158.500 326 C 159.325 326, 160 325.580, 160 325.067 C 160 324.554, 161.013 323.819, 162.250 323.433 C 163.488 323.046, 164.831 322.229, 165.235 321.615 C 165.729 320.865, 165.974 320.959, 165.985 321.903 C 165.995 322.835, 166.641 322.567, 167.909 321.105 C 168.959 319.894, 171.434 318.642, 173.409 318.321 C 175.384 318.001, 177.007 317.235, 177.015 316.619 C 177.024 316.004, 177.467 316.175, 178 317 C 178.646 318, 178.974 318.083, 178.985 317.250 C 178.993 316.563, 179.675 316, 180.500 316 C 181.325 316, 182 315.600, 182 315.111 C 182 314.623, 183.599 313.923, 185.553 313.556 C 187.506 313.190, 189.354 312.242, 189.657 311.451 C 189.961 310.659, 190.595 310.250, 191.066 310.541 C 191.537 310.832, 193.139 309.704, 194.626 308.035 C 196.114 306.366, 197.931 305, 198.665 305 C 199.399 305, 200 304.550, 200 304 C 200 303.450, 200.702 303, 201.559 303 C 202.416 303, 202.875 302.606, 202.577 302.125 C 202.280 301.644, 203.828 300.963, 206.018 300.613 C 208.208 300.263, 210 299.532, 210 298.988 C 210 298.445, 211.125 298, 212.500 298 C 213.875 298, 215 297.590, 215 297.088 C 215 296.586, 216.800 295.872, 219 295.500 C 221.200 295.128, 223 294.414, 223 293.912 C 223 293.410, 224.152 293, 225.559 293 C 227.010 293, 227.851 292.567, 227.500 292 C 227.149 291.432, 228 291, 229.472 291 C 230.897 291, 232.322 290.325, 232.638 289.500 C 232.955 288.675, 233.825 288, 234.573 288 C 237.171 288, 242.119 282.049, 242.707 278.217 C 243.021 276.173, 243.615 274.050, 244.028 273.500 C 244.441 272.950, 245.102 267.891, 245.497 262.257 C 245.892 256.624, 246.616 252.263, 247.107 252.566 C 247.598 252.870, 248 251.940, 248 250.500 C 248 249.009, 248.431 248.148, 249 248.500 C 249.560 248.846, 250 248.067, 250 246.728 C 250 245.195, 250.906 243.853, 252.527 242.986 C 253.917 242.242, 255.315 240.594, 255.634 239.323 C 255.952 238.053, 256.551 237.223, 256.965 237.478 C 257.378 237.734, 258.567 236.268, 259.608 234.221 C 260.649 232.175, 261.838 230.350, 262.250 230.167 C 262.663 229.983, 263 229.196, 263 228.417 C 263 227.637, 263.420 227, 263.933 227 C 264.446 227, 265.170 226.041, 265.542 224.868 C 266.074 223.193, 266.406 223.032, 267.094 224.118 C 267.708 225.087, 267.974 225.132, 267.985 224.269 C 267.993 223.592, 269.125 222.756, 270.500 222.411 C 271.875 222.066, 273 221.382, 273 220.892 C 273 220.401, 274.125 220, 275.500 220 C 276.875 220, 278 219.603, 278 219.117 C 278 218.632, 281.488 217.909, 285.750 217.512 C 290.012 217.114, 293.769 216.358, 294.098 215.831 C 295.002 214.384, 310.272 214.315, 310.752 215.756 C 310.968 216.405, 312.688 217.226, 314.573 217.580 C 316.458 217.933, 318 218.623, 318 219.111 C 318 219.600, 318.675 220, 319.500 220 C 320.325 220, 321 220.430, 321 220.955 C 321 221.480, 322.575 222.205, 324.500 222.566 C 326.425 222.927, 328 223.623, 328 224.111 C 328 224.600, 328.675 225, 329.500 225 C 330.325 225, 331 225.450, 331 226 C 331 226.550, 331.675 227, 332.500 227 C 333.325 227, 334 226.550, 334 226 C 334 225.450, 335.350 225, 337 225 C 338.650 225, 340 224.586, 340 224.080 C 340 223.573, 342.925 222.846, 346.500 222.463 C 350.075 222.080, 353 221.369, 353 220.884 C 353 220.398, 354.827 220, 357.059 220 C 359.291 220, 360.871 219.600, 360.569 219.112 C 360.267 218.624, 362.041 217.921, 364.510 217.551 C 366.980 217.180, 369 216.497, 369 216.033 C 369 215.568, 371.250 214.878, 374 214.500 C 376.750 214.122, 379 213.405, 379 212.906 C 379 212.408, 379.675 212, 380.500 212 C 381.325 212, 382.007 211.438, 382.015 210.750 C 382.026 209.917, 382.354 210, 383 211 C 383.646 212, 383.974 212.083, 383.985 211.250 C 383.993 210.563, 384.868 210, 385.929 210 C 386.989 210, 388.532 209.325, 389.357 208.500 C 390.182 207.675, 391.564 207, 392.429 207 C 393.293 207, 394 206.559, 394 206.019 C 394 205.480, 395.069 204.770, 396.375 204.442 C 397.681 204.114, 399.246 202.756, 399.853 201.423 C 400.460 200.090, 401.642 199, 402.479 199 C 403.315 199, 404 198.550, 404 198 C 404 197.450, 404.675 197, 405.500 197 C 406.325 197, 407 196.555, 407 196.012 C 407 195.468, 408.800 194.736, 411 194.384 C 413.200 194.032, 415 193.352, 415 192.872 C 415 192.392, 416.125 192, 417.500 192 C 418.875 192, 420 191.590, 420 191.088 C 420 190.586, 421.802 189.871, 424.004 189.499 C 426.207 189.127, 427.755 188.413, 427.445 187.911 C 427.135 187.410, 428.034 187, 429.441 187 C 430.848 187, 432 186.599, 432 186.108 C 432 185.618, 433.160 184.926, 434.579 184.570 C 437.495 183.838, 450.864 171.037, 448.822 170.932 C 448.095 170.895, 448.503 170.381, 449.728 169.789 C 450.953 169.198, 452.235 167.834, 452.576 166.759 C 453.383 164.219, 463.683 154, 465.437 154 C 466.179 154, 467.056 153.296, 467.386 152.437 C 467.716 151.577, 468.382 151.118, 468.867 151.418 C 469.352 151.717, 470.566 150.873, 471.566 149.541 C 472.567 148.209, 473.716 147.324, 474.120 147.574 C 474.525 147.824, 475.144 147.123, 475.495 146.015 C 475.847 144.907, 476.854 144, 477.734 144 C 478.614 144, 479.061 143.728, 478.728 143.395 C 478.396 143.062, 479.221 141.773, 480.562 140.530 C 481.903 139.288, 483 137.685, 483 136.969 C 483 136.253, 483.288 135.954, 483.639 136.306 C 483.991 136.657, 485.163 135.157, 486.244 132.972 C 487.325 130.788, 488.612 129, 489.105 129 C 489.597 129, 490 128.364, 490 127.586 C 490 125.525, 496.757 118.831, 497.354 120.300 C 497.732 121.230, 497.860 121.229, 497.921 120.295 C 497.964 119.633, 499.620 118.787, 501.599 118.415 C 504.123 117.942, 504.795 117.485, 503.849 116.885 C 502.876 116.269, 503.143 116.026, 504.809 116.015 C 506.091 116.007, 506.843 115.555, 506.500 115 C 506.160 114.450, 506.823 114, 507.972 114 C 509.122 114, 510.322 113.325, 510.638 112.500 C 510.955 111.675, 511.841 111, 512.607 111 C 513.373 111, 514 110.559, 514 110.019 C 514 109.480, 515.125 108.756, 516.500 108.411 C 517.875 108.066, 519 107.382, 519 106.892 C 519 106.401, 519.900 106, 521 106 C 522.100 106, 523 105.586, 523 105.079 C 523 104.573, 524.350 103.862, 526 103.500 C 527.650 103.138, 529 102.427, 529 101.921 C 529 101.414, 529.620 101, 530.378 101 C 531.135 101, 532.315 100.325, 533 99.500 C 533.685 98.675, 535.059 98, 536.055 98 C 537.051 98, 538.137 97.145, 538.468 96.099 C 539.002 94.418, 543.215 92.391, 545.250 92.836 C 545.663 92.926, 546 92.550, 546 92 C 546 91.450, 546.675 91, 547.500 91 C 548.325 91, 549 90.600, 549 90.111 C 549 89.623, 550.542 88.933, 552.427 88.580 C 554.312 88.226, 556 87.613, 556.177 87.218 C 556.629 86.214, 563.757 83, 565.534 83 C 566.340 83, 567 82.550, 567 82 C 567 81.450, 568.152 81, 569.559 81 C 570.966 81, 571.862 80.586, 571.550 80.081 C 571.237 79.575, 573.957 78.843, 577.594 78.453 C 581.869 77.995, 583.727 77.442, 582.853 76.888 C 581.914 76.293, 582.359 76.026, 584.309 76.015 C 585.924 76.007, 586.855 75.575, 586.500 75 C 586.160 74.450, 586.740 74, 587.788 74 C 589.470 74, 590.772 73.181, 595.708 69.019 C 596.427 68.412, 602.491 68.083, 610.708 68.204 L 624.500 68.408 611.500 69 L 598.500 69.592 611.281 69.796 C 621.437 69.958, 624.178 70.300, 624.624 71.462 C 624.932 72.266, 626.103 73.215, 627.225 73.571 C 628.838 74.083, 628.975 74.402, 627.882 75.094 C 626.786 75.788, 626.862 75.973, 628.250 75.985 C 629.212 75.993, 629.887 76.356, 629.750 76.790 C 629.447 77.747, 644.007 92.466, 646.052 93.272 C 646.995 93.643, 647.064 93.870, 646.250 93.921 C 645.300 93.981, 645 98.221, 645 111.559 C 645 122.143, 645.370 128.889, 645.931 128.543 C 646.473 128.208, 646.995 131.945, 647.181 137.486 C 647.410 144.326, 647.167 147.004, 646.317 147.002 C 645.667 147.001, 644.815 148.012, 644.424 149.250 C 644.034 150.488, 642.879 152.227, 641.859 153.116 C 640.839 154.004, 639.722 156.142, 639.377 157.866 C 639.032 159.590, 638.356 161, 637.875 161 C 637.394 161, 637 161.927, 637 163.059 C 637 164.191, 636.592 164.866, 636.094 164.558 C 635.596 164.250, 634.878 166.249, 634.500 168.999 C 634.122 171.750, 633.405 174, 632.906 174 C 632.408 174, 632 174.675, 632 175.500 C 632 176.325, 631.587 177, 631.083 177 C 630.579 177, 629.715 178.237, 629.162 179.750 C 628.610 181.262, 628.122 181.920, 628.079 181.211 C 628.015 180.158, 627.744 180.158, 626.605 181.211 C 625.838 181.920, 625.394 182.805, 625.619 183.178 C 625.845 183.551, 625.116 184.146, 624 184.500 C 622.884 184.854, 622.229 185.562, 622.544 186.072 C 622.860 186.582, 622.416 187, 621.559 187 C 620.702 187, 620 187.450, 620 188 C 620 188.550, 619.357 189, 618.571 189 C 616.685 189, 613.826 191.909, 614.554 193.088 C 614.869 193.597, 614.423 194.284, 613.563 194.614 C 612.704 194.944, 612 196.066, 612 197.107 C 612 198.148, 611.582 199, 611.072 199 C 610.562 199, 609.864 201.588, 609.523 204.750 C 609.181 207.912, 608.474 211.281, 607.951 212.236 C 607.428 213.191, 607 215.806, 607 218.045 C 607 220.506, 606.604 221.873, 606 221.500 C 605.357 221.103, 605 224.656, 605 231.441 C 605 237.814, 605.396 242, 606 242 C 606.578 242, 607 245.167, 607 249.500 C 607 253.625, 607.389 257, 607.864 257 C 608.339 257, 609.004 259.015, 609.342 261.478 C 609.903 265.575, 611.561 269.748, 613.124 271 C 613.468 271.275, 614.066 272.962, 614.454 274.750 C 614.842 276.538, 615.573 278, 616.079 278 C 616.586 278, 617 278.675, 617 279.500 C 617 280.325, 617.401 281, 617.892 281 C 618.382 281, 619.066 282.125, 619.411 283.500 C 619.756 284.875, 620.731 286, 621.578 286 C 622.425 286, 622.840 286.450, 622.500 287 C 622.160 287.550, 622.610 288, 623.500 288 C 624.390 288, 624.840 288.450, 624.500 289 C 624.160 289.550, 624.761 290, 625.835 290 C 626.910 290, 629.234 291.350, 631 293 C 632.766 294.650, 634.674 296, 635.238 296 C 635.803 296, 636.993 296.836, 637.883 297.857 C 638.772 298.878, 640.560 300.049, 641.855 300.458 C 644.952 301.436, 651.613 307.898, 652.464 310.750 C 652.833 311.987, 653.554 313, 654.067 313 C 654.580 313, 655 313.675, 655 314.500 C 655 315.325, 655.441 316, 655.981 316 C 656.520 316, 657.244 317.125, 657.589 318.500 C 657.934 319.875, 658.618 321, 659.108 321 C 659.599 321, 660 321.750, 660 322.667 C 660 323.583, 660.288 324.046, 660.639 323.694 C 660.991 323.343, 662.163 324.843, 663.244 327.028 C 664.325 329.212, 665.612 331, 666.105 331 C 666.597 331, 667 331.641, 667 332.423 C 667 334.129, 680.573 348.094, 681.414 347.253 C 681.736 346.931, 682 347.192, 682 347.833 C 682 348.475, 682.675 349, 683.500 349 C 684.325 349, 685.007 349.563, 685.015 350.250 C 685.026 351.152, 685.274 351.116, 685.906 350.118 C 686.595 349.030, 686.924 349.184, 687.450 350.841 C 687.968 352.476, 689.241 353.096, 693.142 353.613 C 696.446 354.051, 697.709 354.569, 696.833 355.125 C 695.952 355.683, 696.627 355.975, 698.827 355.985 C 702.173 356, 708 360.445, 708 362.982 C 708 363.607, 708.402 363.870, 708.893 363.566 C 709.385 363.262, 710.090 364.222, 710.460 365.698 C 710.831 367.174, 711.974 369.110, 713 370 C 714.026 370.890, 715.170 372.829, 715.541 374.309 C 715.913 375.789, 716.618 377, 717.108 377 C 717.599 377, 718 377.620, 718 378.378 C 718 379.135, 718.675 380.315, 719.500 381 C 720.325 381.685, 721 383.090, 721 384.122 C 721 385.155, 721.450 386, 722 386 C 722.550 386, 723 386.675, 723 387.500 C 723 388.325, 723.450 389, 724 389 C 724.550 389, 725 389.671, 725 390.491 C 725 391.312, 726.350 393.273, 728 394.850 C 729.650 396.426, 731 398.455, 731 399.358 C 731 400.261, 731.450 401, 732 401 C 733.769 401, 734.425 401.438, 737.994 405 C 739.922 406.925, 743.188 409.358, 745.250 410.407 C 747.313 411.457, 749 412.919, 749 413.657 C 749 414.396, 749.337 414.947, 749.750 414.882 C 752.010 414.525, 754.038 415.130, 753.500 416 C 753.160 416.550, 753.584 417, 754.441 417 C 755.298 417, 756 417.675, 756 418.500 C 756 419.325, 756.400 420, 756.889 420 C 757.377 420, 758.073 421.575, 758.434 423.500 C 758.795 425.425, 759.520 427, 760.045 427 C 760.570 427, 761 427.675, 761 428.500 C 761 429.325, 761.414 430, 761.920 430 C 762.427 430, 763.123 433.038, 763.468 436.750 C 763.813 440.462, 764.523 444.281, 765.047 445.236 C 765.571 446.191, 766 448.516, 766 450.403 C 766 452.290, 766.545 454.015, 767.210 454.237 C 768.835 454.778, 768.751 476.250, 767.122 476.793 C 766.438 477.021, 766 479.844, 766 484.024 C 766 487.796, 765.592 491.134, 765.093 491.442 C 764.594 491.751, 763.861 498.312, 763.464 506.022 C 763.067 513.733, 762.350 520.284, 761.871 520.580 C 761.392 520.876, 760.993 525.029, 760.985 529.809 C 760.974 535.790, 760.667 538.032, 760 537 C 759.305 535.925, 759.026 536.966, 759.015 540.679 C 759.006 543.931, 758.442 546.415, 757.500 547.357 C 756.675 548.182, 756 549.133, 756 549.470 C 756 549.808, 755.100 551.050, 754 552.230 C 752.900 553.411, 752 554.035, 752 553.617 C 752 551.936, 747.388 558.171, 746.354 561.250 C 746.031 562.212, 745.427 563, 745.011 563 C 744.596 563, 743.968 564.800, 743.616 567 C 743.264 569.200, 742.532 571, 741.988 571 C 741.445 571, 741 571.675, 741 572.500 C 741 573.325, 740.600 574, 740.111 574 C 739.623 574, 738.927 575.575, 738.566 577.500 C 738.205 579.425, 737.529 581, 737.063 581 C 736.598 581, 735.934 582.125, 735.589 583.500 C 735.244 584.875, 734.520 586, 733.981 586 C 733.441 586, 733 586.637, 733 587.417 C 733 588.196, 732.525 588.992, 731.946 589.185 C 731.366 589.378, 730.779 590.298, 730.643 591.230 C 730.506 592.162, 729.382 593.801, 728.146 594.873 C 726.356 596.426, 725.778 598.259, 725.307 603.882 C 724.981 607.765, 724.329 610.703, 723.857 610.412 C 723.386 610.120, 722.968 613.171, 722.930 617.191 C 722.882 622.203, 722.589 623.871, 722 622.500 C 721.230 620.708, 721.133 620.778, 721.070 623.167 C 721.018 625.133, 720.278 626.097, 718.250 626.838 C 716.737 627.390, 716.128 627.878, 716.896 627.921 C 717.789 627.972, 717.338 628.884, 715.646 630.452 C 714.191 631.801, 713 633.403, 713 634.011 C 713 634.620, 712.598 634.870, 712.107 634.566 C 711.615 634.262, 710.932 635.136, 710.588 636.507 C 710.243 637.878, 709.520 639, 708.981 639 C 708.441 639, 708 639.675, 708 640.500 C 708 641.325, 707.559 642, 707.019 642 C 706.480 642, 705.756 643.125, 705.411 644.500 C 705.066 645.875, 704.382 647, 703.892 647 C 703.401 647, 703 647.675, 703 648.500 C 703 649.325, 702.424 650, 701.721 650 C 701.017 650, 699.793 650.900, 699 652 C 698.207 653.100, 696.983 654, 696.279 654 C 695.576 654, 694.993 654.788, 694.985 655.750 C 694.972 657.246, 694.828 657.282, 694 656 C 693.163 654.704, 693.029 654.728, 693.015 656.176 C 693.007 657.097, 690.750 660.125, 688 662.904 C 685.250 665.683, 683 668.417, 683 668.979 C 683 669.540, 682.298 670, 681.441 670 C 680.584 670, 680.138 670.414, 680.450 670.919 C 680.763 671.425, 680.399 672.459, 679.641 673.216 C 678.884 673.974, 677.949 675.585, 677.565 676.797 C 677.180 678.008, 676.287 679, 675.581 679 C 674.268 679, 667.601 684.888, 667.375 686.248 C 667.306 686.661, 667.194 687.420, 667.125 687.933 C 667.056 688.446, 666.147 689.136, 665.105 689.467 C 663.931 689.839, 662.962 691.386, 662.560 693.534 C 662.202 695.440, 661.480 697, 660.955 697 C 660.430 697, 660 697.675, 660 698.500 C 660 699.325, 659.596 700, 659.101 700 C 658.607 700, 657.887 703.148, 657.500 706.997 C 657.114 710.845, 656.393 713.743, 655.899 713.437 C 655.404 713.132, 655 714.934, 655 717.441 C 655 719.948, 654.614 722, 654.142 722 C 653.671 722, 652.991 724.813, 652.633 728.250 C 652.274 731.688, 651.535 734.650, 650.990 734.833 C 650.446 735.017, 650 735.804, 650 736.583 C 650 737.363, 649.559 738, 649.019 738 C 648.480 738, 647.757 739.122, 647.412 740.493 C 647.068 741.864, 646.385 742.738, 645.893 742.434 C 645.402 742.130, 645 742.479, 645 743.209 C 645 743.939, 643.829 746.259, 642.397 748.366 C 640.965 750.473, 639.709 752.774, 639.606 753.479 C 639.502 754.184, 637.783 756.349, 635.784 758.289 C 633.786 760.230, 632.417 762.084, 632.742 762.409 C 633.067 762.734, 632.557 763, 631.608 763 C 630.659 763, 630.160 763.450, 630.500 764 C 630.840 764.550, 630.659 765, 630.098 765 C 629.536 765, 627.295 766.800, 625.117 769 C 622.939 771.200, 620.672 773, 620.078 773 C 619.485 773, 619 773.420, 619 773.933 C 619 774.446, 618.123 775.144, 617.051 775.484 C 615.979 775.824, 614.793 777.076, 614.415 778.266 C 614.038 779.456, 612.207 781.908, 610.346 783.715 C 608.486 785.522, 607.454 787, 608.053 787 C 608.652 787, 607.423 788.622, 605.321 790.604 C 603.220 792.586, 601.444 794.611, 601.375 795.104 C 601.306 795.597, 601.194 796.420, 601.125 796.933 C 601.056 797.446, 600.123 798.144, 599.051 798.484 C 597.979 798.824, 596.831 799.956, 596.500 801 C 596.169 802.044, 595.021 803.176, 593.949 803.516 C 592.877 803.856, 592 805.019, 592 806.099 C 592 807.179, 591.325 808.322, 590.500 808.638 C 589.675 808.955, 589 810.317, 589 811.666 C 589 813.015, 588.592 813.866, 588.094 813.558 C 587.596 813.250, 586.878 815.249, 586.500 817.999 C 586.122 820.750, 585.405 823, 584.906 823 C 584.408 823, 584 824.350, 584 826 C 584 827.650, 583.599 829, 583.108 829 C 582.617 829, 581.894 833.500, 581.500 839 C 581.106 844.500, 580.430 849, 579.997 849 C 579.564 849, 578.967 850.687, 578.670 852.750 C 578.373 854.813, 577.677 858.750, 577.124 861.500 C 576.571 864.250, 576.092 869.114, 576.060 872.309 C 576.023 875.914, 575.621 877.883, 575 877.500 C 574.361 877.105, 574 880.156, 574 885.941 C 574 890.923, 574.408 895, 574.907 895 C 575.405 895, 576.134 899.275, 576.526 904.500 C 576.973 910.465, 577.659 914.006, 578.369 914.015 C 579.204 914.027, 579.206 914.223, 578.376 914.765 C 577.757 915.169, 576.934 916.962, 576.546 918.750 C 576.158 920.538, 575.517 922, 575.121 922 C 574.726 922, 573.854 923.515, 573.185 925.366 C 572.515 927.217, 571.048 929.804, 569.923 931.116 C 568.799 932.427, 567.006 934.516, 565.939 935.758 C 564.873 936.999, 564 938.488, 564 939.067 C 564 939.645, 563.584 939.861, 563.076 939.547 C 562.555 939.225, 561.845 942.902, 561.447 947.988 C 561.059 952.945, 560.350 957, 559.871 957 C 559.392 957, 559 960.375, 559 964.500 C 559 968.625, 559.414 972, 559.921 972 C 560.427 972, 561.138 973.354, 561.502 975.009 C 561.865 976.664, 562.576 977.762, 563.081 977.450 C 563.587 977.137, 564 977.835, 564 979 C 564 980.165, 564.402 980.870, 564.893 980.566 C 565.385 980.262, 566.061 981.106, 566.396 982.440 C 566.731 983.775, 567.856 985.137, 568.897 985.467 C 570.058 985.836, 571.036 987.380, 571.427 989.461 C 571.777 991.328, 572.612 993.078, 573.282 993.351 C 574.209 993.729, 574.219 994.048, 573.324 994.687 C 572.607 995.199, 571.868 1000.324, 571.428 1007.836 C 571.002 1015.120, 570.366 1019.606, 569.869 1018.823 C 569.361 1018.022, 569.025 1019.791, 569.015 1023.309 C 569.006 1026.924, 568.622 1028.885, 568 1028.500 C 567.374 1028.113, 566.996 1030.242, 566.989 1034.191 C 566.983 1037.661, 566.712 1042.109, 566.386 1044.076 C 565.963 1046.635, 566.251 1048.108, 567.397 1049.255 C 568.279 1050.136, 569 1051.366, 569 1051.988 C 569 1052.609, 569.450 1052.840, 570 1052.500 C 570.576 1052.144, 571.003 1053.074, 571.006 1054.691 C 571.010 1056.236, 571.685 1058.789, 572.506 1060.364 C 573.328 1061.940, 574 1064.265, 574 1065.531 C 574 1066.797, 574.428 1067.983, 574.950 1068.167 C 575.473 1068.350, 576.212 1072.663, 576.594 1077.750 C 576.975 1082.838, 577.672 1087, 578.143 1087 C 578.615 1087, 579 1089.277, 579 1092.059 C 579 1094.841, 579.381 1096.882, 579.847 1096.594 C 580.896 1095.946, 581.991 1116.398, 581.996 1136.750 C 581.998 1146.247, 582.377 1152, 583 1152 C 583.550 1152, 584 1153.125, 584 1154.500 C 584 1155.875, 584.420 1157, 584.933 1157 C 585.446 1157, 586.165 1157.944, 586.531 1159.099 C 587.287 1161.480, 594.478 1169, 596 1169 C 596.550 1169, 597 1169.510, 597 1170.133 C 597 1170.756, 598.012 1172.143, 599.250 1173.216 C 601.386 1175.067, 601.500 1175.886, 601.500 1189.333 C 601.500 1205.225, 600.993 1212, 599.804 1212 C 599.362 1212, 599 1213.125, 599 1214.500 C 599 1215.875, 598.590 1217, 598.088 1217 C 597.586 1217, 596.862 1218.859, 596.478 1221.131 C 595.987 1224.038, 595.521 1224.853, 594.905 1223.881 C 594.259 1222.860, 594.027 1223.102, 594.015 1224.809 C 594.007 1226.079, 593.605 1226.874, 593.122 1226.575 C 592.639 1226.277, 591.968 1227.412, 591.630 1229.098 C 590.998 1232.259, 592.315 1236, 594.060 1236 C 594.604 1236, 595.477 1237.125, 596 1238.500 C 596.523 1239.875, 597.412 1241, 597.975 1241 C 598.539 1241, 599 1241.900, 599 1243 C 599 1244.100, 599.430 1245, 599.955 1245 C 600.480 1245, 601.220 1246.688, 601.599 1248.750 C 601.978 1250.813, 602.786 1252.822, 603.394 1253.216 C 604.164 1253.715, 604.500 1263.577, 604.500 1285.633 C 604.500 1310.104, 604.785 1317.428, 605.750 1317.750 C 606.438 1317.979, 607 1318.587, 607 1319.101 C 607 1320.586, 614.019 1327, 615.645 1327 C 616.455 1327, 616.840 1327.450, 616.500 1328 C 616.160 1328.550, 616.584 1329, 617.441 1329 C 618.298 1329, 619 1329.399, 619 1329.886 C 619 1330.374, 621.138 1331.078, 623.750 1331.451 C 628.675 1332.153, 634.763 1333.903, 636.500 1335.115 C 637.050 1335.499, 639.638 1336.131, 642.250 1336.520 C 644.862 1336.909, 647 1337.626, 647 1338.114 C 647 1338.601, 647.675 1339, 648.500 1339 C 649.325 1339, 650 1339.469, 650 1340.042 C 650 1341.140, 650.915 1342.383, 655 1346.834 C 656.375 1348.332, 657.725 1349.995, 658 1350.529 C 658.275 1351.063, 658.837 1351.388, 659.250 1351.250 C 659.662 1351.113, 660 1351.477, 660 1352.059 C 660 1352.641, 660.418 1352.860, 660.928 1352.544 C 661.438 1352.229, 662.143 1352.876, 662.495 1353.983 C 662.846 1355.090, 664.225 1356.269, 665.560 1356.604 C 666.894 1356.939, 667.738 1357.615, 667.434 1358.107 C 667.130 1358.598, 667.584 1359, 668.441 1359 C 669.298 1359, 670 1359.414, 670 1359.921 C 670 1360.427, 671.350 1361.138, 673 1361.500 C 674.650 1361.862, 676.007 1362.686, 676.015 1363.329 C 676.024 1364.004, 676.441 1363.865, 677 1363 C 677.862 1361.667, 677.973 1361.667, 678 1363 C 678.021 1364.043, 678.258 1364.143, 678.776 1363.329 C 679.261 1362.566, 683.897 1362.043, 692.055 1361.829 L 704.588 1361.500 709.794 1366.702 C 712.657 1369.564, 715 1372.216, 715 1372.596 C 715 1373.942, 728.224 1385.979, 729.105 1385.435 C 729.597 1385.131, 730 1385.605, 730 1386.489 C 730 1387.373, 731.357 1388.667, 733.017 1389.365 C 734.676 1390.063, 735.726 1390.941, 735.350 1391.317 C 734.974 1391.693, 735.369 1392, 736.226 1392 C 737.084 1392, 738.045 1392.675, 738.362 1393.500 C 738.678 1394.325, 740.103 1395, 741.528 1395 C 743 1395, 743.851 1395.432, 743.500 1396 C 743.145 1396.575, 744.076 1397.007, 745.691 1397.015 C 747.599 1397.026, 748.074 1397.300, 747.173 1397.872 C 745.358 1399.022, 751.509 1399.971, 761 1400.004 C 766.530 1400.024, 768.106 1400.306, 767 1401.081 C 765.818 1401.908, 765.966 1402, 767.699 1401.514 C 771.754 1400.377, 778.999 1400.324, 779.015 1401.431 C 779.024 1402.019, 779.451 1401.836, 779.964 1401.024 C 780.726 1399.819, 781.078 1400.002, 781.885 1402.024 C 782.429 1403.386, 782.902 1403.941, 782.937 1403.258 C 782.971 1402.575, 786.357 1405.352, 790.460 1409.428 C 794.563 1413.505, 798.845 1417.133, 799.975 1417.492 C 801.105 1417.851, 801.771 1418.562, 801.456 1419.072 C 801.140 1419.582, 801.696 1420.007, 802.691 1420.015 C 804.225 1420.028, 804.272 1420.178, 803 1421 C 801.667 1421.862, 801.667 1421.984, 803 1422.103 C 803.825 1422.177, 804.850 1422.179, 805.278 1422.109 C 805.706 1422.039, 806.316 1422.661, 806.635 1423.491 C 806.953 1424.321, 808.028 1425, 809.024 1425 C 810.019 1425, 810.983 1425.437, 811.167 1425.971 C 811.350 1426.505, 812.400 1427.125, 813.500 1427.348 C 816.785 1428.015, 822 1430.382, 822 1431.207 C 822 1431.630, 823.800 1432.264, 826 1432.616 C 828.200 1432.968, 830 1433.648, 830 1434.128 C 830 1434.608, 830.927 1435, 832.059 1435 C 833.191 1435, 833.840 1435.450, 833.500 1436 C 833.110 1436.631, 835.490 1437, 839.941 1437 L 847 1437 847 1395.500 L 847 1354 840.500 1354 C 836.833 1354, 834 1353.564, 834 1353 C 834 1352.450, 833.122 1352, 832.050 1352 C 830.977 1352, 829.641 1351.212, 829.080 1350.250 C 828.359 1349.011, 828.052 1348.911, 828.030 1349.906 C 828.012 1350.764, 827.112 1350.278, 825.718 1348.656 C 824.463 1347.195, 823.103 1346, 822.697 1346 C 821.555 1346, 811.441 1335.711, 810.749 1333.844 C 810.411 1332.934, 808.755 1331.885, 807.068 1331.515 C 805.380 1331.144, 804 1330.427, 804 1329.921 C 804 1329.414, 802.965 1329, 801.700 1329 C 800.435 1329, 798.924 1328.524, 798.342 1327.942 C 797.761 1327.361, 794.746 1326.623, 791.642 1326.303 C 788.539 1325.982, 786 1325.333, 786 1324.860 C 786 1324.387, 783.498 1324, 780.441 1324 C 777.384 1324, 775.125 1324.393, 775.421 1324.873 C 775.718 1325.352, 771.397 1326.069, 765.819 1326.464 C 759.240 1326.931, 756.174 1327.497, 757.089 1328.076 C 758.230 1328.798, 758.165 1328.972, 756.750 1328.985 C 754.844 1329.001, 751 1325.637, 751 1323.952 C 751 1323.376, 749.875 1321.862, 748.500 1320.588 C 747.125 1319.313, 746 1317.760, 746 1317.135 C 746 1316.511, 745.559 1316, 745.019 1316 C 744.480 1316, 743.756 1314.875, 743.411 1313.500 C 743.066 1312.125, 742.382 1311, 741.892 1311 C 741.401 1311, 741 1310.325, 741 1309.500 C 741 1308.675, 740.550 1308, 740 1308 C 739.450 1308, 739 1307.394, 739 1306.653 C 739 1305.001, 735.356 1300.376, 731.590 1297.250 C 730.762 1296.563, 727.455 1296, 724.242 1296 C 721.029 1296, 717.973 1295.591, 717.450 1295.092 C 716.928 1294.592, 712.487 1294.028, 707.582 1293.839 C 701.611 1293.607, 698.527 1293.081, 698.249 1292.247 C 698.020 1291.561, 697.169 1291, 696.358 1291 C 695.546 1291, 695.160 1290.550, 695.500 1290 C 695.840 1289.450, 695.420 1289, 694.567 1289 C 693.034 1289, 687.617 1283.656, 687.375 1281.905 C 687.306 1281.407, 687.194 1280.298, 687.125 1279.441 C 687.056 1278.584, 686.550 1278.160, 686 1278.500 C 685.450 1278.840, 685 1278.165, 685 1277 C 685 1275.835, 684.550 1275.160, 684 1275.500 C 683.450 1275.840, 683 1275.437, 683 1274.604 C 683 1273.772, 681.875 1271.966, 680.500 1270.591 C 679.125 1269.216, 678 1267.606, 678 1267.014 C 678 1266.422, 677.325 1265.678, 676.500 1265.362 C 675.675 1265.045, 675 1263.709, 675 1262.393 C 675 1261.077, 674.550 1260, 674 1260 C 673.378 1260, 673 1254.353, 673 1245.059 C 673 1236.177, 673.406 1229.867, 674 1229.500 C 674.550 1229.160, 675 1226.434, 675 1223.441 C 675 1220.448, 675.388 1218, 675.862 1218 C 677.006 1218, 678.192 1207.612, 677.405 1204.479 C 677.065 1203.123, 676.385 1202.262, 675.893 1202.566 C 675.402 1202.870, 674.993 1202.304, 674.985 1201.309 C 674.972 1199.775, 674.822 1199.728, 674 1201 C 673.207 1202.227, 673.028 1202.113, 673.015 1200.372 C 673.007 1199.202, 672.325 1197.685, 671.500 1197 C 670.675 1196.315, 670 1195.183, 670 1194.485 C 670 1193.786, 669.325 1192.955, 668.500 1192.638 C 667.675 1192.322, 666.993 1191.036, 666.985 1189.781 C 666.972 1187.942, 666.782 1187.790, 666 1189 C 665.284 1190.108, 665.027 1190.155, 665.015 1189.179 C 665.007 1188.452, 664.321 1187.178, 663.491 1186.348 C 662.661 1185.518, 662.239 1184.422, 662.554 1183.912 C 662.869 1183.403, 662.423 1182.716, 661.563 1182.386 C 660.474 1181.968, 660 1180.455, 660 1177.393 C 660 1174.977, 660.397 1173, 660.882 1173 C 661.367 1173, 662.082 1169.177, 662.471 1164.504 C 662.860 1159.831, 663.589 1155.754, 664.089 1155.445 C 664.590 1155.135, 665.007 1152.321, 665.015 1149.191 C 665.025 1145.755, 665.362 1144.022, 665.866 1144.817 C 666.376 1145.621, 666.970 1142.915, 667.390 1137.872 C 667.769 1133.327, 668.595 1128.988, 669.225 1128.228 C 670.022 1127.269, 670.048 1126.642, 669.311 1126.174 C 668.728 1125.803, 667.934 1124.037, 667.546 1122.250 C 667.158 1120.463, 666.427 1119, 665.921 1119 C 665.414 1119, 665 1118.325, 665 1117.500 C 665 1116.675, 664.578 1116, 664.061 1116 C 663.545 1116, 662.819 1113.975, 662.448 1111.500 C 662.077 1109.025, 661.374 1107, 660.886 1107 C 660.399 1107, 660 1106.362, 660 1105.583 C 660 1104.804, 659.563 1104.017, 659.030 1103.833 C 658.496 1103.650, 657.754 1098.438, 657.380 1092.250 C 657.005 1086.063, 656.423 1081, 656.085 1081 C 655.747 1081, 655.332 1078.194, 655.162 1074.764 C 654.992 1071.333, 654.438 1068.271, 653.931 1067.958 C 653.425 1067.644, 652.719 1064.601, 652.362 1061.194 C 652.006 1057.787, 651.329 1055, 650.858 1055 C 650.386 1055, 650 1054.190, 650 1053.200 C 650 1052.210, 649.504 1050.904, 648.897 1050.297 C 647.840 1049.240, 647.928 1047.206, 649.574 1034.750 C 649.919 1032.138, 650.606 1030, 651.101 1030 C 651.595 1030, 652 1027.730, 652 1024.956 C 652 1020.962, 651.480 1019.352, 649.500 1017.217 C 648.125 1015.734, 647 1013.477, 647 1012.201 C 647 1010.926, 646.587 1010.137, 646.081 1010.450 C 645.576 1010.762, 644.865 1009.664, 644.502 1008.009 C 644.138 1006.354, 643.427 1005, 642.921 1005 C 642.414 1005, 642 1004.138, 642 1003.083 C 642 1002.029, 641.438 1000.978, 640.750 1000.746 C 639.184 1000.220, 639.369 979.231, 640.954 977.646 C 641.529 977.071, 642 975.430, 642 974 C 642 972.570, 642.501 970.899, 643.112 970.288 C 644.788 968.612, 644.918 929.812, 643.250 929.253 C 642.563 929.022, 642 927.296, 642 925.417 C 642 923.538, 641.550 922, 641 922 C 640.444 922, 640 919.333, 640 916 C 640 912.667, 640.444 910, 641 910 C 641.550 910, 642 909.325, 642 908.500 C 642 907.675, 642.430 907, 642.955 907 C 643.480 907, 644.213 905.380, 644.585 903.401 C 645.058 900.877, 645.515 900.205, 646.115 901.151 C 646.795 902.225, 646.973 902.174, 646.985 900.906 C 646.993 900.029, 648.143 898.004, 649.541 896.406 C 650.938 894.807, 652.789 892.038, 653.655 890.250 C 654.520 888.463, 655.594 887, 656.042 887 C 656.490 887, 657.165 884.530, 657.542 881.511 C 657.919 878.493, 658.626 876.269, 659.114 876.570 C 659.601 876.872, 660 875.741, 660 874.059 C 660 872.377, 660.398 871, 660.884 871 C 661.369 871, 662.080 868.075, 662.463 864.500 C 662.846 860.925, 663.573 858, 664.080 858 C 664.586 858, 665 856.650, 665 855 C 665 853.350, 665.418 852, 665.928 852 C 666.438 852, 667.165 849.525, 667.543 846.500 C 667.921 843.475, 668.704 841, 669.282 841 C 669.860 841, 670.051 840.718, 669.706 840.373 C 669.361 840.028, 669.753 838.133, 670.577 836.161 C 671.401 834.190, 672.346 829.984, 672.677 826.815 C 673.008 823.647, 673.666 821.294, 674.140 821.586 C 674.613 821.879, 675 819.590, 675 816.500 C 675 813.009, 675.379 811.116, 676 811.500 C 676.550 811.840, 677 811.224, 677 810.130 C 677 809.037, 677.675 807.468, 678.500 806.643 C 679.325 805.818, 680 804.661, 680 804.071 C 680 803.482, 680.441 803, 680.981 803 C 681.520 803, 682.244 801.875, 682.589 800.500 C 682.934 799.125, 683.618 798, 684.108 798 C 684.599 798, 685 797.073, 685 795.941 C 685 794.809, 685.401 794.130, 685.890 794.432 C 686.380 794.735, 687.075 793.411, 687.436 791.491 C 687.796 789.571, 688.500 788, 689 788 C 689.500 788, 690.202 786.440, 690.560 784.534 C 690.962 782.386, 691.931 780.839, 693.105 780.467 C 694.147 780.136, 695 778.953, 695 777.839 C 695 776.658, 695.829 775.596, 696.989 775.293 C 698.083 775.007, 698.731 774.374, 698.430 773.886 C 698.128 773.399, 698.610 773, 699.500 773 C 700.390 773, 700.870 772.598, 700.566 772.107 C 700.262 771.615, 701.106 770.939, 702.440 770.604 C 703.775 770.269, 705.152 769.097, 705.500 768 C 705.848 766.903, 707.225 765.731, 708.560 765.396 C 709.894 765.061, 710.760 764.421, 710.484 763.974 C 710.208 763.527, 710.661 762.482, 711.491 761.652 C 712.321 760.822, 713.007 759.548, 713.015 758.821 C 713.027 757.845, 713.284 757.892, 714 759 C 714.782 760.210, 714.972 760.058, 714.985 758.219 C 714.993 756.964, 715.675 755.678, 716.500 755.362 C 717.325 755.045, 718 754.145, 718 753.362 C 718 752.578, 718.675 751.678, 719.500 751.362 C 720.325 751.045, 721 750.159, 721 749.393 C 721 748.620, 722.001 747.993, 723.250 747.985 C 725.069 747.972, 725.213 747.784, 724 747 C 722.689 746.152, 722.701 746.029, 724.097 746.015 C 724.975 746.007, 726.732 745.100, 728 744 C 729.268 742.900, 730.912 742, 731.653 742 C 732.394 742, 733 741.550, 733 741 C 733 740.450, 733.702 740, 734.559 740 C 735.416 740, 735.840 739.550, 735.500 739 C 735.160 738.450, 735.422 738, 736.083 738 C 737.708 738, 742.629 732.744, 743.463 730.118 C 743.833 728.952, 745.005 727.533, 746.068 726.964 C 747.130 726.395, 748 725.432, 748 724.823 C 748 724.214, 749.237 722.480, 750.750 720.969 C 752.263 719.458, 754.288 717.180, 755.250 715.907 C 756.212 714.635, 757 713.895, 757 714.263 C 757 715.613, 762.795 709.222, 763.454 707.144 C 763.829 705.965, 764.554 705, 765.067 705 C 765.580 705, 766 704.325, 766 703.500 C 766 702.675, 766.418 702, 766.928 702 C 767.438 702, 768.166 699.519, 768.545 696.487 C 768.924 693.455, 769.631 690.728, 770.117 690.428 C 770.603 690.128, 771 687.910, 771 685.500 C 771 683.090, 771.395 680.874, 771.878 680.575 C 772.361 680.277, 773.083 673.050, 773.483 664.516 C 773.883 655.982, 774.613 649, 775.105 649 C 775.597 649, 776 648.298, 776 647.441 C 776 646.584, 776.450 646.160, 777 646.500 C 777.550 646.840, 778 646.482, 778 645.705 C 778 644.928, 779.125 643.078, 780.500 641.595 C 781.875 640.111, 783 639.386, 783 639.984 C 783 640.968, 784.967 639.480, 789.784 634.851 C 792.866 631.889, 797.278 626.254, 797.071 625.543 C 796.960 625.161, 797.911 623.945, 799.184 622.840 C 800.458 621.736, 801.556 620.420, 801.625 619.916 C 801.694 619.412, 801.806 618.580, 801.875 618.067 C 801.944 617.554, 802.877 616.856, 803.949 616.516 C 805.021 616.176, 806.169 615.044, 806.500 614 C 806.831 612.956, 807.867 611.856, 808.801 611.556 C 811.830 610.582, 817 605.493, 817.015 603.470 C 817.028 601.832, 817.194 601.753, 818 603 C 818.838 604.297, 818.971 604.275, 818.985 602.833 C 818.993 601.917, 819.523 600.992, 820.161 600.780 C 821.454 600.349, 822.342 591.533, 824.008 562.575 C 824.937 546.422, 825.361 543.420, 826.905 542.075 C 827.900 541.209, 829.026 539.511, 829.408 538.301 C 829.790 537.092, 830.950 535.833, 831.987 535.504 C 833.023 535.175, 834.019 534.140, 834.200 533.203 C 834.397 532.180, 835.521 531.460, 837.014 531.401 C 838.381 531.346, 841.188 531.234, 843.250 531.151 L 847 531 847 499 L 847 467 840.500 467 L 834 467 834 463.059 C 834 460.891, 834.450 458.840, 835 458.500 C 835.550 458.160, 836.007 458.471, 836.015 459.191 C 836.028 460.250, 836.193 460.244, 836.877 459.165 C 837.343 458.430, 838.011 457.868, 838.362 457.915 C 838.713 457.962, 840.800 458, 843 458 L 847 458 847 432.500 L 847 407 840.958 407 C 836.299 407, 834.425 406.542, 832.770 405 C 831.589 403.900, 830.912 403, 831.266 403 C 831.620 403, 829.042 400.075, 825.537 396.500 C 822.031 392.925, 819.609 390, 820.153 390 C 821.486 390, 818.942 387.555, 816.741 386.722 C 815.773 386.355, 815.057 385.706, 815.149 385.278 C 815.340 384.398, 814.299 381.337, 812.946 378.794 C 812.446 377.855, 811.748 375.276, 811.394 373.062 C 811.040 370.848, 810.356 369.280, 809.875 369.577 C 809.394 369.875, 809 368.741, 809 367.059 C 809 365.377, 808.550 364, 808 364 C 807.450 364, 807 362.660, 807 361.021 C 807 358.725, 805.711 356.774, 801.378 352.510 C 798.286 349.467, 794.689 346.709, 793.385 346.382 C 792.081 346.054, 791.238 345.425, 791.511 344.982 C 791.785 344.539, 790.207 343.873, 788.004 343.501 C 785.802 343.129, 784 342.414, 784 341.912 C 784 341.410, 782.875 341, 781.500 341 C 780.125 341, 779 340.599, 779 340.108 C 779 339.618, 777.789 338.913, 776.309 338.541 C 774.829 338.170, 772.917 337.067, 772.059 336.090 C 771.202 335.113, 769.487 333.777, 768.250 333.122 C 767.013 332.466, 766 331.270, 766 330.465 C 766 329.659, 765.599 329, 765.108 329 C 764.618 329, 763.925 327.836, 763.568 326.414 C 763.211 324.992, 761.812 322.721, 760.459 321.368 C 759.107 320.016, 758 318.228, 758 317.396 C 758 316.563, 757.550 316.160, 757 316.500 C 756.450 316.840, 756 316.609, 756 315.988 C 756 315.366, 755.438 314.230, 754.750 313.463 C 751.663 310.021, 751 308.993, 751 307.649 C 751 306.860, 750.325 305.955, 749.500 305.638 C 748.675 305.322, 748 304.201, 748 303.148 C 748 302.075, 747.122 301.004, 746.003 300.711 C 744.904 300.424, 743.583 299.134, 743.066 297.844 C 742.549 296.555, 742.098 296.095, 742.063 296.821 C 742.015 297.820, 741.616 297.759, 740.429 296.571 C 739.564 295.707, 738.214 295, 737.429 295 C 736.643 295, 736 294.550, 736 294 C 736 293.450, 735.325 293, 734.500 293 C 733.675 293, 733 292.582, 733 292.072 C 733 291.562, 730.525 290.835, 727.500 290.457 C 724.475 290.079, 722 289.470, 722 289.103 C 722 288.480, 717.096 286.873, 710.750 285.415 C 709.237 285.067, 708 284.382, 708 283.892 C 708 283.401, 707.325 283, 706.500 283 C 705.675 283, 705 282.550, 705 282 C 705 281.450, 704.152 281, 703.117 281 C 701.124 281, 700.037 278.461, 700.014 273.750 C 700.006 272.238, 699.550 271, 699 271 C 698.450 271, 698 269.238, 698 267.083 C 698 264.929, 697.604 263.017, 697.121 262.833 C 696.638 262.650, 695.696 257.100, 695.028 250.500 C 693.136 231.812, 692.860 230, 691.899 230 C 691.405 230, 691.045 225.838, 691.100 220.750 C 691.162 214.922, 691.478 212.425, 691.951 214 C 692.407 215.515, 692.939 210.393, 693.302 201 C 694.245 176.565, 695.161 170.507, 698.359 167.543 C 699.838 166.173, 701.037 164.815, 701.024 164.526 C 700.930 162.449, 701.147 161.996, 702.250 161.967 C 703.954 161.921, 708 158.448, 708 157.031 C 708 156.399, 708.402 156.130, 708.893 156.434 C 709.385 156.738, 710.068 155.864, 710.412 154.493 C 710.757 153.122, 711.480 152, 712.019 152 C 712.559 152, 713 151.325, 713 150.500 C 713 149.675, 713.430 149, 713.955 149 C 714.480 149, 715.205 147.425, 715.566 145.500 C 715.927 143.575, 716.623 142, 717.111 142 C 717.600 142, 718 141.325, 718 140.500 C 718 139.675, 718.430 139, 718.955 139 C 719.480 139, 720.205 137.425, 720.566 135.500 C 720.927 133.575, 721.623 132, 722.111 132 C 722.600 132, 723 130.912, 723 129.583 C 723 128.254, 723.563 126.980, 724.250 126.751 C 725.181 126.441, 725.525 121.892, 725.598 108.918 C 725.715 87.981, 725.150 77.789, 723.914 78.553 C 723.411 78.864, 723 77.093, 723 74.618 C 723 72.143, 722.598 69.870, 722.107 69.566 C 721.615 69.262, 720.893 64.964, 720.501 60.013 C 720.109 55.063, 719.386 51.261, 718.894 51.565 C 718.402 51.869, 718 50.291, 718 48.059 C 718 45.827, 717.608 44, 717.128 44 C 716.648 44, 715.968 42.200, 715.616 40 C 715.264 37.800, 714.529 36, 713.982 36 C 713.434 36, 712.009 34.875, 710.813 33.500 C 709.618 32.125, 708.031 31, 707.288 31 C 706.545 31, 705.678 30.325, 705.362 29.500 C 704.927 28.367, 703.098 28, 697.893 28 C 694.102 28, 691 27.621, 691 27.159 C 691 26.696, 681.461 26.031, 669.802 25.681 C 652.187 25.153, 648.459 24.785, 647.741 23.502 C 647.266 22.653, 646.452 22.221, 645.931 22.542 C 645.411 22.864, 644.716 22.423, 644.386 21.563 C 644.056 20.704, 642.982 20, 642 20 C 641.018 20, 639.944 19.296, 639.614 18.437 C 639.284 17.577, 638.561 17.153, 638.007 17.496 C 637.453 17.838, 637 17.615, 637 17 C 637 16.385, 636.597 16.131, 636.105 16.435 C 634.665 17.325, 634 14.321, 634 6.918 L 634 0 610.542 0 L 587.084 0 586.792 7.740" stroke="none" fill="#0c1509" fill-rule="evenodd"/>
</svg>