<svg xmlns="http://www.w3.org/2000/svg" width="868" height="1536" viewBox="0 0 868 1536" version="1.1">
	<path d="M 27 60.548 C 24.525 61.865, 21.790 62.956, 20.922 62.972 C 20.055 62.987, 16.576 64.125, 13.192 65.500 C 9.808 66.875, 5.456 68, 3.520 68 L 0 68 0 82 L 0 96 5.750 95.956 C 8.912 95.932, 13.300 95.264, 15.500 94.471 C 17.700 93.679, 20.182 93.023, 21.015 93.015 C 23.700 92.988, 30.230 97.072, 34.785 101.627 C 40.934 107.776, 43.493 108.855, 52.491 109.093 C 61.547 109.333, 63.286 110.462, 64.970 117.197 C 65.562 119.564, 66.486 122.281, 67.023 123.236 C 67.560 124.191, 68 125.669, 68 126.520 C 68 128.570, 73.608 133.989, 75.784 134.042 C 76.728 134.064, 79.739 134.878, 82.476 135.849 L 87.453 137.615 96.476 133.210 C 101.439 130.787, 106.175 128.395, 107 127.895 C 114.455 123.375, 127.884 119, 134.326 118.992 C 141.622 118.984, 151.715 117.507, 158 115.529 C 168.302 112.286, 194.287 108.740, 207.774 108.737 C 223.162 108.733, 222.833 108.574, 227.912 118.475 C 229.770 122.099, 231.844 125.387, 232.520 125.782 C 233.282 126.227, 233.917 129.791, 234.191 135.165 C 234.581 142.817, 234.972 144.277, 237.537 147.665 C 240.694 151.835, 248.044 158.930, 249.250 158.973 C 249.662 158.988, 250 159.643, 250 160.429 C 250 161.214, 250.691 162.549, 251.536 163.394 C 252.381 164.239, 253.783 166.629, 254.651 168.706 C 255.518 170.783, 257.307 173.482, 258.625 174.704 C 263.640 179.351, 281.401 177.214, 291.273 170.776 C 294.323 168.787, 294.957 167.628, 296.299 161.589 C 298.066 153.642, 297.827 152.978, 290.331 145.022 C 286.355 140.803, 286.210 140.445, 287.806 138.814 C 288.738 137.862, 290.850 135.217, 292.500 132.936 C 294.150 130.654, 296.595 127.823, 297.933 126.644 C 304.352 120.989, 309.074 115.523, 309.604 113.135 C 311.571 104.260, 315.422 100.431, 323.358 99.460 C 328.727 98.802, 329.395 98.941, 331.368 101.121 C 333.481 103.456, 335.751 104.979, 341.264 107.764 C 345.412 109.860, 358.726 109.801, 362.750 107.670 C 364.538 106.723, 366 105.510, 366 104.974 C 366 104.438, 366.792 104, 367.759 104 C 368.727 104, 370.052 103.147, 370.703 102.104 C 371.354 101.062, 373.935 99.426, 376.439 98.470 C 380.544 96.903, 381.740 96.864, 388.592 98.082 C 393.613 98.974, 397.092 100.207, 398.846 101.715 C 400.306 102.970, 402.008 103.998, 402.628 103.999 C 405.680 104.002, 412.199 107.725, 420.792 114.372 L 427.090 119.244 438.795 119.972 C 446.585 120.457, 451.503 121.251, 453.500 122.344 C 455.150 123.248, 457.065 123.990, 457.755 123.994 C 458.445 123.997, 461.370 125.207, 464.255 126.681 C 468.749 128.979, 470.789 129.373, 478.500 129.431 C 483.450 129.469, 488.037 129.848, 488.693 130.274 C 489.349 130.699, 491.714 134.359, 493.948 138.405 C 496.181 142.452, 498.570 146.225, 499.255 146.791 C 499.940 147.357, 503.650 148.898, 507.500 150.216 L 514.500 152.612 519.649 150.512 C 522.481 149.357, 525.527 147.808, 526.417 147.069 C 527.782 145.936, 529.146 146.021, 535.108 147.613 L 542.180 149.500 544.198 155 C 545.309 158.025, 546.851 162.215, 547.625 164.312 C 548.399 166.409, 550.263 169.207, 551.766 170.531 C 554.078 172.565, 555.563 172.942, 561.385 172.968 C 565.171 172.986, 571.113 172.476, 574.588 171.836 L 580.906 170.672 592.913 182.668 L 604.920 194.665 603.891 201.275 L 602.861 207.885 608.431 214.637 C 611.494 218.351, 614.002 222.089, 614.004 222.945 C 614.006 223.800, 614.977 226.075, 616.161 228 C 617.850 230.745, 618.279 232.899, 618.151 237.983 C 618.061 241.548, 617.742 245.237, 617.443 246.180 C 616.832 248.105, 621.753 253.080, 625.329 254.150 C 626.523 254.508, 630.251 254.845, 633.612 254.900 C 638.992 254.988, 640.183 254.636, 643.541 251.967 C 645.640 250.299, 647.978 248.049, 648.736 246.967 C 649.493 245.885, 650.747 245, 651.521 245 C 652.296 245, 654.944 243.875, 657.407 242.500 C 659.870 241.125, 663.456 240, 665.377 240 C 667.298 240, 670.039 239.555, 671.468 239.012 C 674.300 237.936, 676.339 238.753, 680.788 242.750 C 682.165 243.988, 683.852 245, 684.536 245 C 685.220 245, 689.119 248.286, 693.201 252.302 C 700.096 259.086, 704.122 262.131, 711.378 266.051 C 714.589 267.787, 719 274.859, 719.001 278.277 C 719.002 281.138, 724.168 292.073, 726.386 293.909 C 727.809 295.087, 729.027 295.115, 733.794 294.080 C 736.932 293.398, 740.625 292.823, 742 292.801 C 746.422 292.730, 756.602 296.094, 759.499 298.584 C 761.046 299.913, 762.768 301, 763.327 301 C 763.885 301, 765.152 301.733, 766.142 302.628 C 767.803 304.132, 768.202 304.132, 771.371 302.628 C 773.258 301.733, 775.202 301, 775.692 301 C 776.181 301, 780.746 299.650, 785.837 298 C 792.489 295.844, 797.044 295, 802.033 295 L 808.973 295 810.480 298.605 C 811.308 300.588, 812.347 304.976, 812.788 308.355 C 813.509 313.885, 813.348 314.892, 811.181 318.410 C 809.856 320.561, 807.496 323.395, 805.936 324.707 C 802.720 327.414, 802.867 328.695, 807.006 334.033 C 808.513 335.977, 810.085 339.109, 810.499 340.993 C 810.913 342.878, 812.077 346.346, 813.086 348.700 C 817.520 359.045, 814.261 382.479, 807.336 390.055 C 806.051 391.460, 805 393.507, 805 394.605 C 805 395.702, 804.611 397.027, 804.136 397.550 C 803.419 398.339, 801 406.697, 801 408.387 C 801 408.663, 802.462 410.443, 804.250 412.344 C 807.123 415.398, 808.272 415.877, 814.158 416.469 C 819.472 417.004, 822.269 416.707, 828.012 414.997 L 835.207 412.854 841.730 415.156 C 849.699 417.970, 850.959 419.954, 849.133 426.815 C 848.447 429.392, 847.462 431.650, 846.943 431.833 C 846.424 432.017, 846 432.892, 846 433.779 C 846 434.665, 844.917 436.540, 843.593 437.945 C 840.565 441.160, 836.148 451.638, 835.342 457.523 C 835.004 459.985, 834.376 462, 833.946 462 C 833.515 462, 832.163 463.687, 830.941 465.750 C 826.136 473.861, 823.658 477, 822.060 477 C 820.382 477, 811.837 482.020, 809.449 484.408 C 807.385 486.472, 796.766 485.650, 792.429 483.091 C 790.413 481.901, 787.144 480.251, 785.164 479.424 C 781.882 478.053, 781.274 478.076, 778.282 479.687 C 776.477 480.659, 775 481.802, 775 482.227 C 775 482.652, 774.363 483, 773.583 483 C 772.804 483, 771.342 484.074, 770.333 485.387 C 768.162 488.215, 759.759 493, 756.965 493 C 755.884 493, 753.172 494.828, 750.937 497.063 L 746.874 501.126 747.340 511.313 C 747.596 516.916, 748.125 523.193, 748.514 525.263 C 749.038 528.050, 748.668 530.390, 747.086 534.287 C 744.894 539.689, 743.930 544.210, 741.816 559 C 740.897 565.431, 739.926 568.442, 737.824 571.368 C 736.296 573.495, 734.760 576.870, 734.411 578.868 C 734.061 580.866, 732.701 584.469, 731.388 586.876 C 730.074 589.283, 729 591.794, 729 592.457 C 729 593.120, 727.953 594.222, 726.674 594.907 C 725.395 595.591, 723.145 598.007, 721.674 600.276 C 719.403 603.780, 718.988 605.537, 718.923 611.950 C 718.881 616.103, 718.685 620.400, 718.487 621.500 C 718.290 622.600, 717.853 625.525, 717.518 628 C 716.947 632.220, 714.068 640.619, 711.426 645.777 C 710.427 647.728, 710.764 649.005, 713.781 654.687 L 717.303 661.319 716.046 667.910 C 715.355 671.534, 713.624 676.300, 712.200 678.500 C 710.435 681.228, 709.478 684.298, 709.192 688.156 C 708.797 693.493, 709.062 694.302, 713.887 702.500 C 716.699 707.278, 719.007 712.383, 719.015 713.844 C 719.044 719.036, 723.756 729.251, 726.713 730.532 C 727.696 730.958, 731.391 731.192, 734.924 731.053 C 741.338 730.800, 741.354 730.807, 745.174 735.070 C 747.278 737.418, 749 739.956, 749 740.710 C 749 742.119, 756.717 750, 758.096 750 C 759.686 750, 769 756.345, 769 757.428 C 769 759.737, 776.121 773.311, 779.487 777.419 C 781.405 779.759, 783.671 783.650, 784.523 786.066 C 785.376 788.482, 786.957 791.956, 788.037 793.787 C 789.116 795.617, 790 797.685, 790 798.383 C 790 799.081, 791.102 800.687, 792.450 801.953 C 795.572 804.886, 798.434 811.015, 799.897 817.904 C 801.183 823.956, 804.110 829.883, 808.236 834.785 C 809.756 836.591, 811 838.729, 811 839.535 C 811 840.341, 811.378 841, 811.840 841 C 812.302 841, 813.287 842.840, 814.030 845.090 C 815.301 848.943, 821.156 856, 823.081 856 C 824.031 856, 830 868.155, 830 870.091 C 830 870.737, 830.810 871.993, 831.801 872.883 C 834.419 875.235, 840 883.857, 840 885.550 C 840 886.348, 840.367 887, 840.815 887 C 841.263 887, 842.691 890.038, 843.988 893.750 C 845.285 897.462, 846.913 901.400, 847.606 902.500 C 849.429 905.392, 851.815 916.534, 852.104 923.500 C 852.364 929.782, 851.010 936.425, 847.927 944 C 846.919 946.475, 845.796 950.040, 845.430 951.923 C 844.422 957.111, 836.945 967.915, 830.630 973.308 C 827.355 976.104, 825 978.932, 825 980.067 C 825 981.501, 823.209 982.849, 818.250 985.147 C 814.538 986.868, 810.831 988.596, 810.014 988.988 C 808.469 989.729, 804.615 988.454, 797.087 984.712 C 793.867 983.111, 792.186 981.435, 790.865 978.509 C 787.684 971.459, 783.221 968.124, 774.861 966.550 C 770.812 965.788, 765.912 964.565, 763.970 963.832 C 760.230 962.420, 751.570 956.375, 748.915 953.322 C 746.262 950.272, 741.586 946.945, 740.513 947.346 C 739.956 947.553, 736.125 948.771, 732 950.051 C 727.875 951.332, 724.275 952.636, 724 952.949 C 723.725 953.263, 721.845 954.387, 719.822 955.448 C 716.509 957.186, 715.370 957.270, 708.322 956.300 C 704.020 955.708, 697.757 954.589, 694.404 953.813 C 688.668 952.486, 686.026 952.802, 684 955.056 C 683.725 955.363, 679.450 957.571, 674.500 959.963 C 669.550 962.356, 664.038 965.421, 662.250 966.775 C 659.207 969.081, 659 969.626, 659 975.347 C 659 979.221, 658.145 983.845, 656.665 987.979 C 655.381 991.565, 652.845 999, 651.029 1004.500 C 649.213 1010, 646.613 1016.425, 645.252 1018.778 C 643.148 1022.414, 642.872 1023.841, 643.411 1028.278 C 643.759 1031.150, 643.624 1036.785, 643.110 1040.800 C 642.361 1046.646, 641.460 1049.138, 638.586 1053.310 C 636.613 1056.176, 634.099 1059.082, 632.999 1059.769 C 631.291 1060.835, 631 1062.101, 631 1068.460 C 631 1074.930, 632.826 1085.292, 634.421 1087.873 C 634.710 1088.340, 633.385 1091.822, 631.476 1095.611 C 629.568 1099.400, 628.005 1103.069, 628.003 1103.765 C 628.001 1104.461, 626.671 1107.386, 625.047 1110.265 C 621.941 1115.773, 621.933 1116.398, 624.855 1125.777 C 625.601 1128.172, 625.517 1130.327, 624.542 1133.777 C 623.808 1136.375, 622.916 1140.503, 622.560 1142.950 C 622.204 1145.398, 621.547 1147.873, 621.101 1148.450 C 620.655 1149.028, 619.786 1150.999, 619.169 1152.831 C 618.195 1155.723, 618.374 1156.804, 620.524 1161.047 C 623.521 1166.962, 623.671 1172.235, 621 1177.764 C 618.575 1182.783, 618.575 1182.204, 621 1185 C 622.100 1186.268, 623.017 1187.800, 623.038 1188.403 C 623.059 1189.006, 625.084 1191.073, 627.538 1192.995 C 629.992 1194.918, 632 1196.798, 632 1197.174 C 632 1197.550, 632.617 1198.474, 633.370 1199.227 C 635.324 1201.181, 638 1206.598, 638 1208.600 C 638 1210.368, 642.963 1221.096, 644.216 1222.038 C 644.610 1222.334, 643.748 1223.459, 642.301 1224.538 C 640.854 1225.617, 639.036 1227.128, 638.261 1227.896 C 637.486 1228.663, 635.422 1230.060, 633.676 1231 C 631.929 1231.940, 628.332 1233.903, 625.682 1235.363 L 620.863 1238.016 612.780 1236.005 C 608.334 1234.898, 604.180 1233.564, 603.548 1233.040 C 602.917 1232.516, 600.544 1231.791, 598.275 1231.428 C 594.773 1230.868, 593.308 1231.249, 588.595 1233.945 C 585.541 1235.693, 582.777 1237.552, 582.453 1238.076 C 582.129 1238.601, 580.397 1239.643, 578.605 1240.392 C 573.843 1242.381, 551.123 1265.943, 544.885 1275.360 C 543.229 1277.860, 541.115 1280.158, 540.187 1280.468 C 539.259 1280.777, 537.150 1282.669, 535.500 1284.672 C 530.750 1290.439, 526.473 1294.676, 524.147 1295.921 C 522.966 1296.553, 522 1297.541, 522 1298.117 C 522 1298.968, 516.002 1307.094, 513.966 1309 C 513.672 1309.275, 511.653 1311.750, 509.479 1314.500 C 507.304 1317.250, 504.619 1320.456, 503.513 1321.624 C 502.406 1322.793, 499.040 1326.505, 496.033 1329.874 C 493.026 1333.243, 490.101 1336.011, 489.533 1336.025 C 488.965 1336.039, 485.800 1338.300, 482.500 1341.049 C 479.200 1343.798, 474.902 1346.480, 472.948 1347.008 C 469.140 1348.040, 462 1353.757, 462 1355.775 C 462 1356.449, 460.988 1357.005, 459.750 1357.011 C 458.512 1357.017, 455.310 1357.686, 452.633 1358.498 C 448.192 1359.846, 447.494 1359.823, 444.661 1358.237 C 442.954 1357.282, 440.423 1355.487, 439.038 1354.250 C 436.705 1352.165, 435.581 1352, 423.730 1352 C 412.190 1352, 410.333 1351.745, 404.732 1349.387 C 396.258 1345.820, 384.980 1346.230, 376.882 1350.398 C 372.047 1352.888, 371.166 1353.873, 368.217 1360.085 C 366.411 1363.888, 364.499 1367, 363.967 1367 C 363.435 1367, 363 1367.639, 363 1368.419 C 363 1369.856, 365.985 1376.079, 367.115 1376.999 C 368.316 1377.976, 369.053 1381.820, 369.409 1388.957 C 369.764 1396.079, 369.704 1396.285, 365.385 1402.726 C 362.973 1406.322, 361.008 1409.543, 361.017 1409.882 C 361.027 1410.222, 362.152 1411.560, 363.517 1412.855 C 364.883 1414.150, 366 1415.613, 366 1416.105 C 366 1416.597, 366.469 1417, 367.043 1417 C 368.863 1417, 385 1433.835, 385 1435.734 C 385 1437.558, 379.821 1443.975, 378.306 1444.028 C 377.863 1444.044, 375.514 1445.824, 373.086 1447.985 C 370.658 1450.146, 367.295 1452.216, 365.612 1452.585 C 363.930 1452.955, 360.863 1454.324, 358.796 1455.629 C 356.730 1456.933, 354.651 1458, 354.175 1458 C 353.699 1458, 352.514 1458.880, 351.541 1459.955 C 350.568 1461.030, 347.642 1463.023, 345.039 1464.384 C 341.039 1466.476, 339.704 1466.719, 336.404 1465.953 C 334.257 1465.455, 328.111 1465.037, 322.746 1465.024 C 311.828 1464.997, 308.555 1466.167, 301.900 1472.473 C 298.438 1475.753, 296.366 1480.446, 294.601 1489 C 294.260 1490.653, 292.607 1492.307, 289.724 1493.880 C 287.325 1495.189, 284.269 1497.581, 282.931 1499.195 C 277.624 1505.600, 274.949 1507.747, 271.593 1508.291 C 269.674 1508.603, 266.401 1510.015, 264.320 1511.429 C 261.197 1513.551, 259.378 1514, 253.914 1514 C 248.262 1514, 246.903 1513.639, 244.632 1511.535 C 243.169 1510.179, 240.291 1508.590, 238.236 1508.003 C 233.005 1506.511, 226.570 1502.786, 226.135 1501 C 225.935 1500.175, 225.428 1496.493, 225.009 1492.817 C 224.563 1488.914, 223.363 1484.706, 222.123 1482.699 C 219.559 1478.550, 219.348 1472.161, 221.630 1467.749 C 222.907 1465.279, 223.125 1463.001, 222.635 1457.212 C 221.908 1448.608, 221.641 1448, 218.600 1448 C 217.345 1448, 214.121 1447.339, 211.436 1446.531 C 207.143 1445.239, 206.285 1445.239, 204.313 1446.531 C 203.079 1447.339, 201.373 1448, 200.522 1448 C 199.670 1448, 198.066 1448.563, 196.958 1449.250 C 195.167 1450.361, 194.527 1450.050, 191.193 1446.446 C 187.010 1441.925, 180.129 1438.200, 174.332 1437.318 C 172.224 1436.998, 169.600 1435.949, 168.500 1434.987 C 164.861 1431.807, 156.933 1429, 151.623 1429.011 C 141.647 1429.032, 139.157 1429.934, 133.316 1435.637 C 130.308 1438.574, 126.193 1441.549, 124.173 1442.248 C 122.153 1442.948, 118.550 1444.632, 116.166 1445.991 L 111.833 1448.462 112.510 1456.114 C 112.920 1460.746, 112.805 1464.003, 112.218 1464.365 C 111.685 1464.695, 108.885 1469.709, 105.996 1475.508 C 102.046 1483.437, 99.195 1487.623, 94.501 1492.387 C 91.068 1495.871, 88.086 1499.241, 87.875 1499.876 C 87.280 1501.660, 78 1491.962, 78 1489.557 C 78 1487.572, 69.072 1478, 67.222 1478 C 66.346 1478, 64.604 1477.037, 63.352 1475.861 C 61.281 1473.915, 60.867 1473.854, 58.787 1475.188 C 55.952 1477.007, 48.367 1479.436, 40.630 1481.003 C 35.372 1482.068, 34.331 1481.987, 30.630 1480.231 C 22.826 1476.527, 20.956 1476.296, 14 1478.181 C 10.425 1479.149, 5.813 1479.955, 3.750 1479.971 L 0 1480 -0 1497.138 L -0 1514.275 8.750 1513.446 C 13.562 1512.990, 18.947 1512.623, 20.715 1512.632 C 23.803 1512.647, 31.142 1515.695, 31.833 1517.250 C 32.403 1518.533, 33.996 1518.082, 36.223 1516.007 C 37.399 1514.911, 40.418 1513.433, 42.931 1512.723 C 47.271 1511.497, 47.638 1511.555, 50.250 1513.881 C 52.041 1515.476, 53 1517.330, 53 1519.197 C 53 1520.774, 53.675 1523.680, 54.500 1525.654 C 55.325 1527.629, 56 1530.764, 56 1532.622 L 56 1536 85 1536 L 114 1536 114 1530.283 C 114 1522.294, 116.394 1516.515, 120.514 1514.560 C 122.323 1513.702, 124.531 1513, 125.421 1513 C 127.875 1513, 134.412 1508.547, 136.390 1505.528 C 137.494 1503.842, 138.509 1499.282, 139.130 1493.208 C 139.673 1487.904, 140.478 1483.100, 140.920 1482.532 C 141.363 1481.964, 142.009 1480.307, 142.356 1478.850 C 143.145 1475.540, 146.508 1474.202, 158.392 1472.469 C 167.502 1471.140, 168.405 1471.261, 175.575 1474.764 C 178.360 1476.125, 178.772 1476.958, 179.956 1483.622 C 180.825 1488.512, 180.932 1491.401, 180.276 1492.239 C 178.154 1494.950, 176.988 1502.574, 178.273 1505.342 C 178.948 1506.795, 179.832 1507.988, 180.237 1507.992 C 180.643 1507.996, 182.109 1509.796, 183.494 1511.991 C 185.732 1515.536, 185.904 1516.459, 185.031 1520.241 C 184.491 1522.584, 184.038 1527.088, 184.024 1530.250 L 184 1536 234.440 1536 L 284.879 1536 285.190 1532.285 C 285.465 1528.991, 285.867 1528.497, 288.738 1527.914 C 294.050 1526.837, 303.085 1521.756, 306.738 1517.793 C 310.851 1513.331, 310.817 1513.342, 324 1512.038 C 337.364 1510.715, 344.376 1508.535, 348.372 1504.460 C 351.668 1501.100, 355.822 1498.681, 360.020 1497.679 C 361.406 1497.348, 363.469 1496.212, 364.604 1495.155 C 365.739 1494.097, 368.205 1492.911, 370.084 1492.518 C 371.963 1492.125, 374.442 1491.209, 375.593 1490.482 C 380.523 1487.368, 381.190 1487.921, 383.928 1497.402 C 385.690 1503.500, 387.130 1506.651, 388.500 1507.402 C 389.600 1508.006, 390.806 1508.926, 391.181 1509.447 C 392.181 1510.838, 406.429 1510.142, 410.233 1508.516 C 412.030 1507.748, 414.719 1505.803, 416.209 1504.193 C 418.987 1501.192, 424.675 1498, 427.246 1498 C 428.040 1498, 429.505 1497.100, 430.500 1496 C 431.495 1494.900, 432.881 1494, 433.578 1494 C 434.276 1494, 436.119 1492.933, 437.673 1491.628 C 439.228 1490.324, 444.100 1487.786, 448.500 1485.988 C 452.900 1484.190, 457.850 1481.503, 459.500 1480.017 C 463.347 1476.551, 468.503 1473.561, 473.250 1472.044 C 475.312 1471.384, 477 1470.460, 477 1469.990 C 477 1469.520, 477.892 1468.852, 478.982 1468.506 C 480.073 1468.160, 481.663 1466.442, 482.517 1464.688 C 484.989 1459.612, 487.075 1457.728, 494.352 1454 C 498.110 1452.075, 501.416 1449.938, 501.699 1449.250 C 501.982 1448.562, 502.850 1448, 503.627 1448 C 504.404 1448, 506.822 1446.875, 509 1445.500 C 511.178 1444.125, 513.674 1443, 514.547 1443 C 517.455 1443, 523.155 1436.494, 525.109 1430.946 C 527.564 1423.975, 527.499 1422.817, 524.492 1419.993 C 521.047 1416.756, 515.583 1415.033, 508.710 1415.015 C 504.338 1415.004, 502.194 1414.464, 499.960 1412.812 C 498.332 1411.609, 497 1410.146, 497 1409.562 C 497 1407.608, 489.805 1402.701, 487.055 1402.779 C 483.542 1402.879, 473.051 1407.703, 472.345 1409.542 C 472.042 1410.332, 469.981 1411.467, 467.764 1412.063 C 462.514 1413.477, 452.598 1417.997, 452.149 1419.181 C 451.287 1421.453, 446.155 1425.143, 442.500 1426.119 C 440.300 1426.707, 437.713 1427.599, 436.750 1428.102 C 434.504 1429.276, 431.307 1427.359, 430.562 1424.392 C 429.848 1421.546, 421.778 1413.246, 418.521 1412.008 C 416.162 1411.111, 415.992 1410.581, 415.882 1403.775 C 415.816 1399.774, 415.842 1395.825, 415.938 1395 C 416.241 1392.402, 418.965 1387.180, 420.259 1386.716 C 421.639 1386.220, 424.760 1387.617, 426.774 1389.632 C 429.026 1391.883, 435.208 1392.873, 442.529 1392.154 C 448.751 1391.542, 450.337 1390.919, 456.327 1386.732 C 460.050 1384.129, 463.511 1382, 464.018 1382 C 464.526 1382, 467.324 1380.910, 470.236 1379.578 C 473.149 1378.246, 476.743 1376.852, 478.225 1376.480 C 479.706 1376.108, 481.442 1375.173, 482.081 1374.402 C 482.721 1373.631, 483.710 1373, 484.278 1373 C 484.846 1373, 486.927 1371.763, 488.902 1370.250 C 494.528 1365.941, 498.785 1363.150, 503.058 1360.970 C 505.226 1359.864, 507 1358.585, 507 1358.128 C 507 1356.525, 517.197 1347, 518.913 1347 C 519.406 1347, 520.971 1345.019, 522.390 1342.597 C 525.938 1336.543, 540.426 1322.172, 543.777 1321.384 C 545.275 1321.031, 547.625 1319.716, 549 1318.461 C 550.375 1317.206, 554.875 1314.537, 559 1312.530 C 568.640 1307.838, 571.981 1305.946, 575.452 1303.216 C 577.002 1301.997, 578.727 1301, 579.285 1301 C 579.844 1301, 582.821 1299.784, 585.900 1298.299 C 592.221 1295.250, 599.783 1287.971, 602.834 1282 C 603.537 1280.625, 604.653 1278.775, 605.314 1277.889 C 606.807 1275.890, 616.301 1271.003, 618.717 1270.991 C 621.247 1270.977, 630.775 1265.333, 632.247 1262.976 C 632.926 1261.889, 634.066 1261, 634.782 1261 C 637.090 1261, 648.277 1254.696, 654.689 1249.781 C 658.120 1247.152, 661.625 1245, 662.477 1245 C 664.171 1245, 667.640 1243.219, 669.783 1241.250 C 670.531 1240.562, 671.786 1240, 672.571 1240 C 673.357 1240, 674 1239.572, 674 1239.048 C 674 1238.524, 675.929 1236.769, 678.288 1235.146 C 683.663 1231.448, 688.717 1222.875, 686.723 1220.837 C 686.004 1220.102, 684.831 1218.070, 684.116 1216.322 C 683.402 1214.575, 681.958 1212.367, 680.909 1211.417 C 679.378 1210.032, 679 1208.309, 679 1202.712 L 679 1195.734 673.140 1190.117 C 667.614 1184.820, 664 1179.375, 664 1176.346 C 664 1175.606, 663.583 1175, 663.073 1175 C 660.866 1175, 659 1168.487, 659 1160.781 C 659 1152.835, 659.969 1149.503, 662.913 1147.328 C 665.118 1145.699, 664.845 1136.219, 662.489 1132.624 C 660.765 1129.992, 660.791 1129.815, 663.752 1124.168 C 667.910 1116.235, 669.048 1109.610, 668.760 1095 C 668.516 1082.589, 668.765 1081.127, 672.617 1072.349 C 673.378 1070.616, 674 1068.764, 674 1068.234 C 674 1067.704, 674.954 1066.058, 676.119 1064.576 C 677.894 1062.320, 678.155 1060.957, 677.727 1056.191 C 676.945 1047.484, 678.902 1034.068, 681.474 1030.500 C 682.664 1028.850, 684.369 1025.700, 685.263 1023.500 C 688.339 1015.933, 694 998.766, 694 997.006 C 694 994.760, 697.516 993.414, 707 992.029 C 715.900 990.729, 721.736 987.939, 724.555 983.637 C 726.290 980.988, 727.146 980.544, 730.055 980.784 C 731.950 980.941, 733.650 981.503, 733.833 982.034 C 734.017 982.565, 734.692 983, 735.334 983 C 736.812 983, 743.866 989.641, 746.500 993.512 C 749.360 997.716, 753.014 1000.979, 755.422 1001.481 C 756.565 1001.719, 760.664 1002.055, 764.532 1002.227 C 770.288 1002.484, 772.421 1003.082, 776.280 1005.520 C 778.874 1007.159, 780.999 1008.950, 781.003 1009.500 C 781.020 1012.161, 788.032 1017.932, 793.063 1019.426 C 801.640 1021.973, 808.120 1021.514, 814.515 1017.905 C 817.532 1016.202, 820.252 1014.402, 820.559 1013.905 C 820.866 1013.407, 821.837 1013, 822.715 1013 C 823.593 1013, 825.786 1011.875, 827.589 1010.500 C 829.392 1009.125, 831.394 1008, 832.039 1008 C 834.661 1008, 844.901 998.709, 844.967 996.270 C 844.985 995.594, 846.912 994.071, 849.250 992.886 C 854.325 990.312, 857.140 987.636, 859.387 983.250 C 860.782 980.526, 861.614 980, 864.526 980 L 868 980 868 911.500 L 868 843 864.620 843 C 861.911 843, 860.523 842.181, 857.620 838.870 C 855.629 836.598, 854 834.390, 854 833.963 C 854 833.535, 851.976 830.107, 849.502 826.343 C 847.028 822.579, 845.003 818.890, 845.002 818.145 C 845.001 817.400, 843.875 814.551, 842.500 811.813 C 841.125 809.076, 840 806.258, 840 805.553 C 840 804.847, 839.139 803.175, 838.086 801.837 C 837.034 800.499, 834.754 796.051, 833.019 791.952 C 828.348 780.913, 824.699 773.935, 822.925 772.645 C 821.186 771.381, 815 759.688, 815 757.666 C 815 756.263, 810.253 751.162, 804.609 746.500 C 802.411 744.684, 799.399 740.343, 796.979 735.500 C 790.730 722.995, 787.755 720.355, 777.463 718.178 C 768.553 716.293, 767.251 715.454, 764.954 710.114 C 763.778 707.380, 762.182 704.900, 761.408 704.603 C 760.633 704.306, 760 703.441, 760 702.681 C 760 701.922, 758.741 699.545, 757.203 697.400 C 753.613 692.393, 752.301 688.815, 751.556 682 C 751.226 678.975, 750.429 673.244, 749.785 669.264 C 748.680 662.431, 748.770 661.513, 751.409 652.764 C 752.946 647.669, 754.945 641.955, 755.852 640.066 C 757.037 637.597, 757.426 634.477, 757.235 628.959 C 757.051 623.623, 757.429 620.406, 758.479 618.393 C 759.536 616.367, 759.990 612.434, 759.994 605.265 C 760 594.546, 759.905 594.876, 767.108 580.750 C 767.598 579.788, 768.386 578.212, 768.857 577.250 C 769.329 576.288, 770.533 573.925, 771.534 572 C 772.534 570.075, 773.667 567.825, 774.051 567 C 774.435 566.175, 775.706 563.545, 776.875 561.155 C 778.220 558.405, 779 554.885, 779 551.559 C 779 548.671, 779.295 542.150, 779.656 537.070 C 780.401 526.569, 779.524 527.480, 792.162 524.090 C 797.216 522.734, 800.435 521.064, 804.605 517.631 C 807.699 515.084, 810.829 513, 811.562 513 C 812.295 513, 814.943 511.911, 817.446 510.580 C 819.950 509.248, 823.236 507.861, 824.749 507.497 C 826.262 507.133, 829.525 505.303, 832 503.432 C 837.232 499.476, 845.920 494.787, 851.162 493.089 C 853.175 492.437, 855.055 491.300, 855.338 490.562 C 856.069 488.658, 861.787 486, 865.154 486 L 868 486 868 439 L 868 392 864.500 392 C 862.575 392, 861 391.562, 861 391.026 C 861 389.914, 852.324 381.006, 851.224 380.989 C 850.432 380.976, 847.712 375.270, 846.204 370.461 C 845.182 367.203, 845.221 367.097, 851.941 354.798 C 854.946 349.299, 855.386 347.587, 855.413 341.296 C 855.439 335.288, 855.057 333.569, 853.112 330.937 C 850.410 327.283, 848.787 318.059, 848.988 307.500 C 849.095 301.913, 849.603 299.794, 851.505 297 C 856.852 289.148, 856.885 285.218, 851.647 280.277 C 848.874 277.662, 847.216 277.083, 839.576 276.067 C 832.950 275.185, 829.913 274.273, 827.516 272.444 C 825.753 271.100, 823.621 270, 822.778 270 C 821.935 270, 820.691 269.332, 820.013 268.516 C 819.336 267.700, 816.446 265.767, 813.592 264.221 L 808.402 261.410 802.451 263.191 C 799.178 264.171, 794.909 264.979, 792.965 264.986 C 791.021 264.994, 786.746 265.944, 783.465 267.097 C 780.184 268.251, 775.178 269.435, 772.340 269.728 C 767.820 270.195, 767.014 269.994, 765.840 268.105 C 765.103 266.920, 761.800 264.561, 758.500 262.863 C 755.200 261.165, 751.350 258.701, 749.945 257.388 C 748.540 256.075, 746.941 255, 746.391 255 C 744.879 255, 739.001 248.609, 738.990 246.952 C 738.973 244.373, 734.015 234.745, 731.724 232.843 C 726.395 228.417, 723.100 224.539, 720.879 220.082 C 718.211 214.724, 716.020 213.417, 708 212.401 C 701.362 211.560, 695.801 209.707, 692.182 207.130 C 690.427 205.880, 686.840 204.968, 681.827 204.498 C 674.753 203.836, 673.711 203.991, 668.394 206.507 C 661.627 209.708, 649.449 211.618, 647.281 209.818 C 646.249 208.962, 645.946 206.599, 646.139 200.931 C 646.368 194.199, 646.099 192.768, 644.034 189.755 C 642.732 187.854, 639.716 185.065, 637.333 183.558 C 634.950 182.050, 633 180.512, 633 180.140 C 633 179.768, 634.052 177.897, 635.338 175.982 C 638.252 171.643, 639.169 168.184, 637.989 165.979 C 636.167 162.575, 627.126 159.713, 616.224 159.089 L 605.948 158.500 601.724 153.843 C 599.401 151.281, 594.350 146.582, 590.500 143.401 C 586.650 140.219, 583.275 137.302, 583 136.917 C 582.725 136.533, 579.106 135.673, 574.959 135.006 C 568.219 133.922, 567.236 133.477, 565.709 130.815 C 564.636 128.947, 564 125.681, 564 122.044 C 564 112.723, 563.193 110.406, 558.915 107.441 C 555.735 105.237, 554.391 104.882, 551.278 105.424 C 542.773 106.903, 536.342 109.507, 532.109 113.185 C 527.957 116.793, 527.353 117, 520.982 117 C 516.795 117, 513.864 116.527, 513.239 115.750 C 512.686 115.063, 511.031 110.450, 509.561 105.500 C 506.331 94.617, 503.913 91.863, 498.265 92.636 C 491.984 93.494, 480.671 95.988, 477.711 97.165 C 475.330 98.113, 474.212 97.889, 470.075 95.638 C 467.410 94.187, 464.566 93, 463.754 93 C 462.943 93, 460.621 91.875, 458.595 90.500 C 456.569 89.125, 454.486 88, 453.967 88 C 452.077 88, 439.083 75.769, 435.934 71.027 C 434.575 68.980, 433.437 68.696, 424.959 68.291 C 419.756 68.042, 413.700 68.237, 411.500 68.724 C 408.575 69.371, 405.485 69.133, 400 67.838 C 395.875 66.865, 390.250 66.069, 387.500 66.070 C 382.306 66.071, 372.784 68.002, 369.432 69.732 C 368.369 70.281, 364.534 71.021, 360.909 71.377 C 354.990 71.957, 354.047 71.792, 351.671 69.762 C 343.138 62.468, 344.449 62.951, 333.516 63.077 C 324.958 63.176, 322.655 62.848, 318.625 60.954 C 314.239 58.892, 313.406 58.810, 308.179 59.928 C 301.986 61.252, 296.436 63.486, 295.475 65.041 C 295.139 65.584, 293.032 66.964, 290.792 68.106 C 282.120 72.530, 276.523 82.154, 275.397 94.573 C 274.642 102.911, 273.832 103.397, 270.119 97.740 C 268.730 95.625, 266.182 93.490, 264.006 92.619 C 261.006 91.419, 260.073 90.380, 259.243 87.313 C 256.975 78.931, 253.042 69.865, 250.513 67.185 L 247.842 64.355 239.671 66.562 C 235.177 67.775, 227.352 70.845, 222.283 73.384 C 217.213 75.923, 212.466 78, 211.733 78 C 211 78, 209.959 78.441, 209.420 78.980 C 208.551 79.849, 199.167 81.048, 180.500 82.675 C 177.200 82.963, 170.235 84.279, 165.023 85.599 C 159.811 86.920, 153.908 88, 151.907 88 C 149.905 88, 142.297 89.125, 135 90.500 C 127.703 91.875, 119.404 93, 116.558 93 C 112.433 93, 110.221 93.699, 105.667 96.442 C 101.289 99.078, 98.365 100.040, 93.177 100.551 L 86.404 101.219 81.953 92.359 C 77.278 83.054, 72.961 78, 69.686 78 C 65.319 78, 59.835 75.582, 58.507 73.072 C 56.372 69.033, 50.009 63.037, 47.124 62.345 C 45.681 61.999, 42.830 60.880, 40.790 59.858 C 35.958 57.438, 32.517 57.610, 27 60.548 M 0 1527 L 0 1536 14.637 1536 L 29.274 1536 28.745 1529.408 C 28.454 1525.782, 27.751 1522.351, 27.183 1521.783 C 26.003 1520.603, 10.614 1518.089, 4.250 1518.035 L 0 1518 0 1527" stroke="none" fill="#0c1509" fill-rule="evenodd"/>
</svg>